<?xml version="1.0" encoding="iso-8859-1"?>
<!-- Generator: Adobe Illustrator 23.1.0, SVG Export Plug-In . SVG Version: 6.00 Build 0)  -->
<svg version="1.1" id="Layer_1" xmlns="http://www.w3.org/2000/svg" xmlns:xlink="http://www.w3.org/1999/xlink" x="0px" y="0px"
	 viewBox="0 0 500 180" style="enable-background:new 0 0 500 180;" xml:space="preserve">
<g id="FON_N" style="display:none;">
	<g style="display:inline;">
		<path style="fill:#799B5B;" d="M7,101.5c-0.6,0.2-1.6,0.3-2.9,0.5s-2.6,0.3-3.9,0.3s-2.4-0.1-3.4-0.3c-1-0.2-1.8-0.5-2.5-1.1
			s-1.2-1.2-1.5-2.1s-0.5-2.1-0.5-3.5V55.4c0-1.2,0.3-2.1,1-2.7c0.6-0.6,1.5-1.2,2.7-1.6c1.9-0.7,4.1-1.2,6.5-1.5s4.9-0.5,7.4-0.5
			c7.8,0,13.7,1.7,17.8,5s6.2,7.8,6.2,13.5c0,2.8-0.4,5.3-1.3,7.5c-0.9,2.2-2.2,4.1-3.9,5.7c-1.7,1.6-3.9,2.8-6.5,3.7
			c-2.6,0.9-5.6,1.3-9.1,1.3H7V101.5z M11.4,74.4c2.4,0,4.2-0.5,5.4-1.6c1.3-1.1,1.9-2.8,1.9-5c0-2.1-0.7-3.8-2-4.9
			C15.4,61.6,13.5,61,11,61c-0.9,0-1.6,0-2.2,0c-0.6,0-1.2,0.1-1.8,0.2v13.1L11.4,74.4L11.4,74.4z"/>
		<path style="fill:#799B5B;" d="M74.4,89.6c0,4.3-1.6,7.6-4.8,10c-3.2,2.4-7.9,3.6-14.2,3.6c-2.4,0-4.6-0.2-6.6-0.5
			s-3.8-0.9-5.2-1.6s-2.6-1.6-3.4-2.7c-0.8-1.1-1.2-2.3-1.2-3.8c0-1.4,0.3-2.5,0.8-3.4c0.6-0.9,1.2-1.7,2-2.3
			c1.6,0.9,3.5,1.7,5.6,2.4c2.1,0.7,4.5,1.1,7.3,1.1c1.7,0,3.1-0.3,4-0.8s1.4-1.2,1.4-2s-0.3-1.4-1-1.9c-0.7-0.4-1.8-0.8-3.4-1.1
			l-2.5-0.5c-4.9-1-8.5-2.5-10.9-4.5c-2.4-2.1-3.6-5-3.6-8.8c0-2.1,0.5-4,1.4-5.7s2.2-3.1,3.8-4.2s3.6-2,5.9-2.6
			c2.3-0.6,4.8-0.9,7.6-0.9c2.1,0,4,0.2,5.9,0.5c1.8,0.3,3.4,0.8,4.8,1.4s2.4,1.4,3.2,2.4c0.8,1,1.2,2.2,1.2,3.5s-0.2,2.4-0.7,3.3
			s-1.1,1.7-1.8,2.3c-0.5-0.3-1.1-0.6-2-0.9s-1.9-0.6-3-0.8c-1.1-0.3-2.2-0.5-3.3-0.6c-1.1-0.2-2.1-0.3-3-0.3
			c-1.9,0-3.3,0.2-4.3,0.6s-1.5,1.1-1.5,2c0,0.6,0.3,1.1,0.8,1.5c0.6,0.4,1.6,0.8,3.2,1.1l2.6,0.6c5.4,1.2,9.2,2.9,11.5,5.1
			C73.2,83.3,74.4,86.1,74.4,89.6z"/>
		<path style="fill:#799B5B;" d="M81,49.4c0-2.1,0.7-3.9,2.2-5.4c1.4-1.5,3.3-2.2,5.7-2.2s4.3,0.7,5.7,2.2c1.4,1.5,2.2,3.3,2.2,5.4
			c0,2.1-0.7,3.9-2.2,5.4c-1.4,1.5-3.3,2.2-5.7,2.2s-4.3-0.7-5.7-2.2C81.7,53.3,81,51.5,81,49.4z M96,101.7
			c-0.6,0.1-1.5,0.3-2.7,0.5s-2.4,0.3-3.7,0.3c-1.2,0-2.4-0.1-3.3-0.3c-1-0.2-1.8-0.5-2.5-1s-1.2-1.2-1.6-2.1s-0.5-2-0.5-3.4V61.4
			c0.6-0.1,1.5-0.3,2.7-0.5s2.4-0.3,3.7-0.3s2.3,0.1,3.3,0.3s1.8,0.5,2.5,1s1.2,1.2,1.6,2.1c0.4,0.9,0.5,2,0.5,3.4V101.7L96,101.7z"
			/>
		<path style="fill:#799B5B;" d="M128.3,70.8c-1.4,0-2.7,0.2-4,0.7s-2.4,1.1-3.3,2s-1.7,2-2.2,3.3c-0.6,1.3-0.8,2.8-0.8,4.6
			c0,3.5,1,6.1,3,7.9c2,1.7,4.4,2.6,7.3,2.6c1.7,0,3.2-0.2,4.4-0.6s2.3-0.8,3.3-1.3c1.1,0.8,2,1.6,2.5,2.6c0.6,0.9,0.8,2,0.8,3.3
			c0,2.3-1.1,4.1-3.3,5.4s-5.2,1.9-9.1,1.9c-3.5,0-6.8-0.5-9.6-1.6c-2.9-1-5.3-2.5-7.4-4.4s-3.6-4.2-4.8-6.8
			c-1.1-2.6-1.7-5.6-1.7-8.8c0-3.7,0.6-7,1.8-9.8c1.2-2.8,2.9-5.1,4.9-6.9c2.1-1.8,4.5-3.2,7.2-4.1s5.6-1.4,8.7-1.4
			c4.1,0,7.2,0.7,9.4,2.2s3.3,3.3,3.3,5.7c0,1.1-0.3,2.1-0.8,3s-1.1,1.7-1.8,2.4c-1-0.4-2.1-0.9-3.5-1.3
			C131.3,71,129.8,70.8,128.3,70.8z"/>
		<path style="fill:#799B5B;" d="M187.6,81.3c0,3.5-0.5,6.6-1.6,9.3c-1.1,2.7-2.6,5-4.5,6.9s-4.3,3.3-7,4.2c-2.7,1-5.7,1.4-9,1.4
			s-6.3-0.5-9-1.5s-5-2.5-7-4.3s-3.4-4.2-4.5-6.9c-1.1-2.7-1.6-5.7-1.6-9.1c0-3.3,0.5-6.3,1.6-9s2.6-5,4.5-6.9s4.3-3.3,7-4.3
			s5.7-1.5,9-1.5s6.3,0.5,9,1.6c2.7,1,5,2.5,7,4.4c1.9,1.9,3.4,4.2,4.5,6.9C187.1,75,187.6,78,187.6,81.3z M158.1,81.3
			c0,3.4,0.7,6.1,2,7.9s3.2,2.7,5.5,2.7c2.4,0,4.2-0.9,5.4-2.8s1.9-4.5,1.9-7.9s-0.6-6-1.9-7.8c-1.3-1.8-3.1-2.7-5.5-2.7
			s-4.2,0.9-5.5,2.7C158.7,75.3,158.1,77.9,158.1,81.3z"/>
		<path style="fill:#6A214C;" d="M195.7,58.5c0-2.4,0.7-4.3,2.1-5.7c1.4-1.4,3.3-2.1,5.7-2.1h27.9c0.4,0.6,0.7,1.4,1.1,2.4
			c0.3,1,0.5,2.1,0.5,3.2c0,2.1-0.5,3.7-1.4,4.6s-2.2,1.4-3.7,1.4h-17.8v7.9h19c0.4,0.6,0.7,1.4,1.1,2.4c0.3,1,0.5,2,0.5,3.2
			c0,2.1-0.5,3.7-1.4,4.6s-2.1,1.4-3.6,1.4h-15.5v8.9h21.7c0.4,0.6,0.7,1.4,1.1,2.4c0.3,1,0.5,2.1,0.5,3.2c0,2.1-0.5,3.7-1.4,4.6
			s-2.2,1.4-3.7,1.4h-24.7c-2.4,0-4.3-0.7-5.7-2.1s-2.1-3.3-2.1-5.7L195.7,58.5L195.7,58.5z"/>
		<path style="fill:#6A214C;" d="M260.1,59.5c2.3,0,4.6,0.3,6.8,1c2.2,0.6,4.1,1.6,5.8,2.9c1.7-1.1,3.6-2.1,5.7-2.8s4.7-1.1,7.6-1.1
			c2.1,0,4.2,0.3,6.3,0.8c2.1,0.6,3.9,1.4,5.5,2.7c1.6,1.2,2.9,2.8,3.8,4.8c1,2,1.4,4.4,1.4,7.3v26.6c-0.6,0.2-1.4,0.3-2.7,0.5
			c-1.2,0.2-2.5,0.3-3.8,0.3c-1.2,0-2.4-0.1-3.3-0.3c-1-0.2-1.8-0.5-2.5-1s-1.2-1.2-1.6-2.1s-0.5-2-0.5-3.4V75.5
			c0-1.7-0.5-2.9-1.4-3.7c-1-0.8-2.3-1.1-3.9-1.1c-0.8,0-1.6,0.2-2.5,0.5c-0.9,0.4-1.6,0.7-2,1.1c0.1,0.2,0.1,0.4,0.1,0.6
			s0,0.4,0,0.5v28.1c-0.6,0.2-1.5,0.3-2.7,0.5s-2.4,0.3-3.7,0.3c-1.2,0-2.4-0.1-3.3-0.3c-1-0.2-1.8-0.5-2.5-1s-1.2-1.2-1.6-2.1
			s-0.5-2-0.5-3.4v-20c0-1.7-0.5-2.9-1.6-3.7c-1-0.8-2.3-1.1-3.8-1.1c-1,0-1.9,0.2-2.6,0.5c-0.7,0.3-1.4,0.6-1.9,0.9v29.6
			c-0.6,0.2-1.4,0.3-2.7,0.5c-1.2,0.2-2.5,0.3-3.8,0.3c-1.2,0-2.4-0.1-3.3-0.3c-1-0.2-1.8-0.5-2.5-1s-1.2-1.2-1.6-2.1
			c-0.4-0.9-0.5-2-0.5-3.4V70.2c0-1.5,0.3-2.7,1-3.6c0.6-0.9,1.5-1.7,2.7-2.5c1.9-1.4,4.3-2.4,7.1-3.3
			C254.1,59.9,257,59.5,260.1,59.5z"/>
		<path style="fill:#6A214C;" d="M354.4,81.3c0,3.5-0.5,6.6-1.6,9.3c-1.1,2.7-2.6,5-4.5,6.9s-4.3,3.3-7,4.2c-2.7,1-5.7,1.4-9,1.4
			s-6.3-0.5-9-1.5s-5-2.5-7-4.3c-1.9-1.9-3.4-4.2-4.5-6.9c-1.1-2.7-1.6-5.7-1.6-9.1c0-3.3,0.5-6.3,1.6-9s2.6-5,4.5-6.9
			s4.3-3.3,7-4.3s5.7-1.5,9-1.5s6.3,0.5,9,1.6c2.7,1,5,2.5,7,4.4c1.9,1.9,3.4,4.2,4.5,6.9C353.8,75,354.4,78,354.4,81.3z
			 M324.8,81.3c0,3.4,0.7,6.1,2,7.9s3.2,2.7,5.5,2.7s4.2-0.9,5.4-2.8c1.3-1.9,1.9-4.5,1.9-7.9s-0.6-6-1.9-7.8s-3.1-2.7-5.5-2.7
			s-4.2,0.9-5.5,2.7C325.5,75.3,324.8,77.9,324.8,81.3z"/>
		<path style="fill:#6A214C;" d="M375.7,87.7c0,1.5,0.5,2.5,1.4,3.1s2.2,0.9,3.9,0.9c0.8,0,1.7-0.1,2.6-0.2s1.7-0.3,2.4-0.5
			c0.5,0.6,0.9,1.3,1.3,2.1c0.4,0.8,0.5,1.7,0.5,2.7c0,2.1-0.8,3.9-2.4,5.2s-4.4,2-8.5,2c-5,0-8.8-1.1-11.4-3.4c-2.7-2.3-4-5.9-4-11
			v-36c0.6-0.2,1.5-0.4,2.7-0.5c1.2-0.2,2.4-0.3,3.7-0.3c2.5,0,4.4,0.4,5.8,1.3c1.4,0.9,2.1,2.7,2.1,5.5V64h11.1
			c0.3,0.6,0.7,1.4,1,2.3s0.5,2,0.5,3.1c0,2-0.4,3.4-1.3,4.3s-2,1.3-3.5,1.3h-7.7L375.7,87.7L375.7,87.7z"/>
		<path style="fill:#6A214C;" d="M394.8,49.4c0-2.1,0.7-3.9,2.2-5.4c1.4-1.5,3.3-2.2,5.7-2.2c2.4,0,4.3,0.7,5.7,2.2
			c1.4,1.5,2.2,3.3,2.2,5.4c0,2.1-0.7,3.9-2.2,5.4c-1.4,1.5-3.3,2.2-5.7,2.2c-2.4,0-4.3-0.7-5.7-2.2
			C395.5,53.3,394.8,51.5,394.8,49.4z M409.8,101.7c-0.6,0.1-1.5,0.3-2.7,0.5s-2.4,0.3-3.7,0.3s-2.4-0.1-3.3-0.3
			c-1-0.2-1.8-0.5-2.5-1s-1.2-1.2-1.6-2.1s-0.5-2-0.5-3.4V61.4c0.6-0.1,1.5-0.3,2.7-0.5s2.4-0.3,3.7-0.3c1.2,0,2.4,0.1,3.3,0.3
			c1,0.2,1.8,0.5,2.5,1s1.2,1.2,1.6,2.1c0.4,0.9,0.5,2,0.5,3.4V101.7L409.8,101.7z"/>
		<path style="fill:#6A214C;" d="M461.4,81.3c0,3.5-0.5,6.6-1.6,9.3c-1.1,2.7-2.6,5-4.5,6.9s-4.3,3.3-7,4.2c-2.7,1-5.7,1.4-9,1.4
			s-6.3-0.5-9-1.5s-5-2.5-7-4.3c-1.9-1.9-3.4-4.2-4.5-6.9c-1.1-2.7-1.6-5.7-1.6-9.1c0-3.3,0.5-6.3,1.6-9s2.6-5,4.5-6.9
			s4.3-3.3,7-4.3s5.7-1.5,9-1.5s6.3,0.5,9,1.6c2.7,1,5,2.5,7,4.4c1.9,1.9,3.4,4.2,4.5,6.9C460.9,75,461.4,78,461.4,81.3z
			 M431.9,81.3c0,3.4,0.7,6.1,2,7.9s3.2,2.7,5.5,2.7s4.2-0.9,5.4-2.8c1.3-1.9,1.9-4.5,1.9-7.9s-0.6-6-1.9-7.8s-3.1-2.7-5.5-2.7
			s-4.2,0.9-5.5,2.7C432.5,75.3,431.9,77.9,431.9,81.3z"/>
		<path style="fill:#6A214C;" d="M494.4,75.8c0-1.7-0.5-3-1.5-3.8s-2.3-1.2-4-1.2c-1.1,0-2.2,0.1-3.3,0.4c-1.1,0.3-2,0.7-2.8,1.3
			v29.3c-0.6,0.2-1.4,0.3-2.7,0.5c-1.2,0.2-2.5,0.3-3.8,0.3c-1.2,0-2.4-0.1-3.3-0.3c-1-0.2-1.8-0.5-2.5-1s-1.2-1.2-1.6-2.1
			s-0.5-2-0.5-3.4V70.4c0-1.5,0.3-2.8,1-3.7c0.6-1,1.5-1.8,2.7-2.6c1.9-1.4,4.3-2.4,7.2-3.3c2.9-0.8,6.1-1.3,9.7-1.3
			c6.4,0,11.3,1.4,14.7,4.2s5.1,6.7,5.1,11.6v26.4c-0.6,0.2-1.5,0.3-2.7,0.5s-2.5,0.3-3.8,0.3c-1.2,0-2.4-0.1-3.3-0.3
			c-1-0.2-1.8-0.5-2.5-1s-1.2-1.2-1.6-2.1s-0.5-2-0.5-3.4L494.4,75.8L494.4,75.8z"/>
	</g>
</g>
<g id="V._COLOR" style="display:none;">
	<rect x="368.3" y="-216" style="display:inline;fill:#EDEEF0;" width="277.8" height="612"/>
	<g style="display:inline;">
		<path d="M514.7,173.4c0.2,6-4.1,10.5-10.1,10.8c-0.1,0-0.2,0-0.3,0c-0.1,0-0.2,0-0.3,0c-6-0.3-10.4-4.9-10.1-10.8H514.7z"/>
		<path d="M504,166c-5.3,0-10.6,0-16,0c-2.9,0-4.6-1.4-4.6-3.7s1.8-3.6,4.7-3.6c10.7,0,21.4,0,32.1,0c2.9,0,4.6,1.3,4.7,3.6
			c0.1,2.4-1.7,3.7-4.8,3.7C514.8,166,509.4,166,504,166z"/>
		<path d="M503.9,151.4c-7,0-14,0-21,0c-3.8,0-6.1-1.4-6-3.7c0.1-2.2,2.3-3.6,6.1-3.6c14.1,0,28.1,0,42.2,0c3.9,0,6.1,1.3,6.2,3.6
			c0.1,2.3-2.2,3.7-6.3,3.7C518.1,151.4,511,151.4,503.9,151.4z"/>
		<g id="parte_cerebro_3_">
			<path style="fill:#799B5B;" d="M531.1,115.2c-0.5,2.7-2.6,5-5.4,5.4c-0.8,0.1-1.9-0.2-2.5-0.8c-1.3-1-2.3-0.8-2.8,0.8
				c-0.2,0.6-0.2,1.2-0.3,1.8c-0.7,3.3-3.4,5.3-6.8,5.2c-3.4-0.2-5.8-2.2-5.9-5.7c-0.2-7.8-0.1-15.7-0.1-23.5c0-1.8,0-3.5,0-4.9
				c2.9,1.1,5.7,2.2,8.6,3.2c0.8,0.3,1.8,0.2,2.8,0.2c3.9,0,6.3,2.2,6.5,5.7c0.2,3.9-2.3,7.1-5.9,7.6c-0.9,0.1-1.9-0.1-2.8,0
				c-0.7,0.1-1.3,0.5-2,0.8c0.5,0.7,0.9,1.9,1.4,2c1.6,0.3,3.3,0.3,4.8,0c3-0.6,4.9-2.7,6.5-5.3
				C530.4,109.6,531.6,112.1,531.1,115.2z"/>
			<path style="fill:#799B5B;" d="M534.3,111.8c-0.9-3.1-2.8-5.4-5.5-7.1c-0.4-0.2-0.5-1.1-0.5-1.6c-0.1-2.6-1-4.9-2.8-6.8
				c-0.8-0.8-0.6-1.3,0-2c1.2-1.4,2.3-2.9,3.6-4.2c0.6-0.6,1.6-1.2,2.5-1.2c5-0.1,10.3,4.6,11.1,9.6
				C543.6,104.7,540.3,110.1,534.3,111.8z"/>
			<path style="fill:#799B5B;" d="M555.6,69.9c-1.8,3-5,4.4-8.4,3.6c-0.1-0.7-0.1-1.5-0.2-2.3c-0.4-3.3-2.3-5.6-5.1-7.1
				c-0.5-0.3-1.8-0.3-2.2,0.3c-0.4,0.6,0.3,1.6,0.6,2c0.3,0.3,0.9,0.7,1.4,1.1c2.1,1.7,2.8,4.3,1.8,6.6c-1.1,2.6-3.3,4-6.1,3.8
				c-0.7-0.1-1.5-0.3-2.1-0.1c-0.6,0.2-1.2,0.8-1.5,1.3c-0.1,0.3,0.6,1.1,1.1,1.4c2.5,1.4,6.9,0.7,9.1-2c2.3-2.7,5.9-2.4,7.7-1.6
				c0.4,0.2,1.1,0.7,1.4,1.3c1.7,3.1,1.9,6.4-0.1,9.5s-5,4.4-8.7,4c-0.8-0.1-1.6-0.6-2.2-1.2c-2.8-2.7-5.9-4.4-9.8-4.8
				c-0.5-0.1-1.1-0.8-1.3-1.3c-0.2-1-0.1-2.1-0.2-3.2c-0.9-7.7-8.6-13.1-16.2-11.5c-0.5,0.1-1.1,0.2-1.5,0.6s-0.7,1-0.7,1.5
				c0,0.3,0.7,0.8,1.1,0.9c1.2,0.1,2.5,0,3.7,0c5.1,0,9.2,3.3,10.3,8.2c1.1,5-1.2,9.8-5.8,11.9c-4.5,2.1-9.9,0.9-12.8-3.1
				c-0.9-1.3-1.6-3-1.6-4.5c-0.1-12.8,0-25.5,0-38.3c0-2.9,0.4-5.7,2.5-8c2.9-3.3,7.7-3.8,11.3-1.2c0.3,0.2,2.6,1.4,3.1,0.9
				c0.5-0.6-1.1-2.6-1.2-2.9c-1-3.5,7.9-5,12-2.6c4.1,2.3,5.8,7.7,3.9,11.9c-0.1,0.3-0.4,0.6-0.5,0.9c-0.2,0.6-0.4,2.2,0.3,2.6
				c0.8,0.4,1.9-0.7,2.3-1.3c0.9-1.3,1.2-3.2,3.1-3.2c2.2,0,4.1,0.8,5.5,2.6c2,2.5,2.3,5.2,1,8c-1.1,2.6-4.1,4.2-7,4
				c-3.1-0.2-5.5-1.8-6.4-4.8c-1.4-4.7-5.4-8.2-10.8-7.8c-5.6,0.4-10.1,5.7-9.3,11.3c0.1,1.1,0.2,2.5,1.8,2.3
				c1.4-0.2,1.3-1.4,1.2-2.5c-0.3-4.2,1.8-7.1,5.6-7.9c3.5-0.8,6.8,1.1,8.2,5c1.1,3,2.8,5.4,5.7,6.8c3.6,1.7,7,1.1,10.2-1
				c1.8-1.2,3-0.8,4.3,0.6C556.9,62.8,557.3,67,555.6,69.9z"/>
		</g>
		<path id="parte_corazon_3_" style="fill:#6A214C;" d="M502.3,83.7c0,14.7,0,26.7,0,38.6c0,1.8,0.3,4-1.3,4.9
			c-1.6,1-3.3-0.6-4.8-1.5c-10.2-6.7-19.9-14-28.3-22.9c-7.3-7.8-13.8-16.2-17.6-26.4c-2.5-6.6-4-13.4-2.9-20.5
			c1.2-7.6,5-13.7,11.2-18.1c11.2-7.9,26.2-7.9,37.4-0.2c1.3,0.9,2.5,2.1,3.8,3.1c1.5,1.3,2,2.9,2.1,4.9
			C502.6,59.2,502.1,72.8,502.3,83.7z"/>
		<path style="fill-rule:evenodd;clip-rule:evenodd;" d="M543,139.6c-2.7,1.5-6.1,4.6-8.4,0.6c-2.4-4.2,2-5.2,4.7-6.8
			c20.7-12.2,32.2-30.2,34.1-54.2c2-24.8-6.8-45.3-25.8-60.9C534.9,7.9,519.5,2.9,504.2,2.9c-15.3-0.1-30.7,4.9-43.4,15.4
			c-19,15.6-27.8,36.1-25.8,60.9c2,24,13.5,42.1,34.1,54.2c2.7,1.6,7.1,2.6,4.7,6.8c-2.3,4-5.8,0.9-8.4-0.6
			c-46.5-25.8-51.4-93.5-8.9-127.3C470.9,1,486.8-4.5,504.2-4.2c17.4-0.3,33.4,5.2,47.6,16.5C594.3,46.1,589.5,113.8,543,139.6z"/>
	</g>
	<g style="display:inline;">
		<g>
			<path d="M-5-74.9c0.1,3.4-2.3,6-5.8,6.1c-0.1,0-0.1,0-0.2,0s-0.1,0-0.2,0c-3.4-0.2-5.9-2.8-5.8-6.1H-5z"/>
			<path d="M-11-79.2c-3,0-6,0-9.1,0c-1.7,0-2.6-0.8-2.6-2.1c0-1.3,1-2.1,2.7-2.1c6.1,0,12.2,0,18.3,0c1.7,0,2.6,0.8,2.7,2
				c0,1.3-1,2.1-2.7,2.1C-4.9-79.2-8-79.2-11-79.2z"/>
			<path d="M-11.1-87.4c-4,0-7.9,0-11.9,0c-2.2,0-3.4-0.8-3.4-2.1c0-1.3,1.3-2,3.5-2c8,0,16,0,24,0c2.2,0,3.5,0.7,3.5,2
				S3.3-87.4,1-87.4C-3-87.4-7.1-87.4-11.1-87.4z"/>
			<g id="parte_cerebro_2_">
				<path d="M4.3-108c-0.3,1.5-1.5,2.8-3.1,3.1c-0.5,0.1-1.1-0.1-1.4-0.4c-0.8-0.6-1.3-0.5-1.6,0.5c-0.1,0.3-0.1,0.7-0.2,1
					c-0.4,1.9-1.9,3-3.9,2.9s-3.3-1.2-3.3-3.3c-0.1-4.5,0-8.9,0-13.4c0-1,0-2,0-2.8c1.7,0.6,3.3,1.3,4.9,1.8c0.5,0.2,1,0.1,1.6,0.1
					c2.2,0,3.6,1.2,3.7,3.2c0.1,2.2-1.3,4-3.3,4.3c-0.5,0.1-1.1-0.1-1.6,0c-0.4,0.1-0.8,0.3-1.1,0.4c0.3,0.4,0.5,1.1,0.8,1.1
					c0.9,0.2,1.9,0.2,2.8,0c1.7-0.3,2.8-1.5,3.7-3C4-111.2,4.6-109.7,4.3-108z"/>
				<path d="M6.1-109.9c-0.5-1.8-1.6-3.1-3.1-4c-0.2-0.1-0.3-0.6-0.3-0.9c0-1.5-0.5-2.8-1.6-3.9c-0.4-0.4-0.3-0.7,0-1.1
					c0.7-0.8,1.3-1.7,2-2.4c0.4-0.4,0.9-0.7,1.4-0.7c2.9-0.1,5.9,2.6,6.3,5.5C11.4-114,9.6-110.9,6.1-109.9z"/>
				<path d="M18.3-133.7c-1,1.7-2.8,2.5-4.7,2c0-0.4-0.1-0.9-0.1-1.3c-0.2-1.9-1.3-3.2-2.9-4c-0.3-0.2-1-0.2-1.3,0.2
					c-0.2,0.3,0.2,0.9,0.4,1.1c0.2,0.2,0.5,0.4,0.8,0.6c1.2,1,1.6,2.4,1,3.8c-0.6,1.5-1.9,2.3-3.5,2.2c-0.4,0-0.8-0.2-1.2-0.1
					c-0.3,0.1-0.7,0.4-0.8,0.8c-0.1,0.2,0.4,0.6,0.6,0.8c1.4,0.8,3.9,0.4,5.2-1.1c1.3-1.5,3.3-1.4,4.4-0.9c0.2,0.1,0.6,0.4,0.8,0.7
					c1,1.8,1.1,3.6,0,5.4s-2.9,2.5-4.9,2.3c-0.4-0.1-0.9-0.4-1.2-0.7c-1.6-1.5-3.4-2.5-5.6-2.7c-0.3,0-0.7-0.4-0.7-0.7
					c-0.1-0.6-0.1-1.2-0.1-1.8c-0.5-4.4-4.9-7.5-9.2-6.5c-0.3,0.1-0.6,0.1-0.8,0.3c-0.2,0.2-0.4,0.6-0.4,0.8s0.4,0.5,0.6,0.5
					c0.7,0.1,1.4,0,2.1,0c2.9,0,5.2,1.9,5.8,4.7s-0.7,5.6-3.3,6.8c-2.5,1.2-5.6,0.5-7.3-1.8c-0.5-0.7-0.9-1.7-0.9-2.6
					c-0.1-7.2,0-14.5,0-21.8c0-1.6,0.3-3.2,1.4-4.5c1.7-1.9,4.4-2.2,6.4-0.7c0.2,0.1,1.5,0.8,1.8,0.5s-0.6-1.5-0.7-1.7
					c-0.6-2,4.5-2.8,6.8-1.5s3.3,4.4,2.2,6.8c-0.1,0.2-0.2,0.4-0.3,0.5c-0.1,0.3-0.2,1.2,0.2,1.5c0.5,0.2,1.1-0.4,1.3-0.8
					c0.5-0.7,0.7-1.8,1.8-1.8c1.3,0,2.3,0.5,3.1,1.5c1.1,1.4,1.3,2.9,0.6,4.6c-0.7,1.5-2.3,2.4-4,2.3c-1.8-0.1-3.1-1-3.6-2.7
					c-0.8-2.6-3.1-4.7-6.1-4.4c-3.2,0.2-5.7,3.2-5.3,6.4c0.1,0.6,0.1,1.4,1,1.3c0.8-0.1,0.8-0.8,0.7-1.4c-0.2-2.4,1-4,3.2-4.5
					c2-0.4,3.8,0.6,4.7,2.8c0.6,1.7,1.6,3.1,3.3,3.9c2,1,4,0.6,5.8-0.6c1-0.7,1.7-0.4,2.4,0.4C19-137.8,19.2-135.4,18.3-133.7z"/>
			</g>
			<path id="parte_corazon_2_" d="M-12-125.9c0,8.4,0,15.2,0,21.9c0,1,0.2,2.3-0.7,2.8s-1.9-0.3-2.7-0.9c-5.8-3.8-11.3-7.9-16.1-13
				c-4.1-4.4-7.8-9.2-10-15c-1.4-3.8-2.3-7.6-1.6-11.7c0.7-4.3,2.8-7.8,6.4-10.3c6.4-4.5,14.9-4.5,21.3-0.1c0.8,0.5,1.4,1.2,2.1,1.8
				c0.8,0.7,1.1,1.7,1.2,2.8C-11.8-139.8-12.1-132.1-12-125.9z"/>
			<path style="fill-rule:evenodd;clip-rule:evenodd;" d="M11.1-94.1c-1.5,0.8-3.5,2.6-4.8,0.3c-1.4-2.4,1.2-2.9,2.7-3.8
				c11.7-6.9,18.3-17.2,19.4-30.8c1.1-14.1-3.8-25.7-14.7-34.6c-7.2-5.9-16-8.8-24.6-8.7c-8.7,0-17.4,2.8-24.6,8.7
				c-10.8,8.9-15.8,20.5-14.7,34.6c1.1,13.6,7.6,23.9,19.4,30.8c1.5,0.9,4,1.5,2.7,3.8s-3.3,0.5-4.8-0.3
				c-26.4-14.7-29.2-53.1-5-72.3c8.1-6.4,17.2-9.5,27-9.4c9.9-0.1,19,3,27,9.4C40.3-147.2,37.5-108.8,11.1-94.1z"/>
		</g>
		<g>
			<path d="M-105.4-25.4c-0.2,0.1-0.6,0.1-1.1,0.2s-1,0.1-1.5,0.1s-0.9,0-1.3-0.1s-0.7-0.2-1-0.4c-0.3-0.2-0.5-0.5-0.6-0.8
				c-0.1-0.4-0.2-0.8-0.2-1.4v-15.5c0-0.5,0.1-0.8,0.4-1.1s0.6-0.5,1-0.6c0.7-0.3,1.6-0.5,2.5-0.6c1-0.1,1.9-0.2,2.9-0.2
				c3,0,5.3,0.6,6.9,1.9c1.6,1.3,2.4,3,2.4,5.3c0,1.1-0.2,2-0.5,2.9s-0.8,1.6-1.5,2.2c-0.7,0.6-1.5,1.1-2.5,1.4s-2.2,0.5-3.5,0.5
				h-2.3L-105.4-25.4L-105.4-25.4z M-103.7-36c0.9,0,1.6-0.2,2.1-0.6c0.5-0.4,0.7-1.1,0.7-2c0-0.8-0.3-1.5-0.8-1.9s-1.3-0.7-2.2-0.7
				c-0.3,0-0.6,0-0.9,0c-0.2,0-0.5,0-0.7,0.1v5.1L-103.7-36L-103.7-36z"/>
			<path d="M-79.2-30.1c0,1.7-0.6,3-1.9,3.9s-3.1,1.4-5.5,1.4c-0.9,0-1.8-0.1-2.6-0.2c-0.8-0.1-1.5-0.3-2-0.6c-0.5-0.3-1-0.6-1.3-1
				s-0.5-0.9-0.5-1.5c0-0.5,0.1-1,0.3-1.3c0.2-0.4,0.5-0.7,0.8-0.9c0.6,0.4,1.4,0.7,2.2,0.9c0.8,0.3,1.8,0.4,2.8,0.4
				c0.7,0,1.2-0.1,1.6-0.3c0.4-0.2,0.5-0.5,0.5-0.8s-0.1-0.5-0.4-0.7s-0.7-0.3-1.3-0.4l-1-0.2c-1.9-0.4-3.3-1-4.3-1.8
				c-0.9-0.8-1.4-1.9-1.4-3.4c0-0.8,0.2-1.5,0.5-2.2s0.8-1.2,1.5-1.6c0.6-0.4,1.4-0.8,2.3-1s1.9-0.4,2.9-0.4c0.8,0,1.6,0.1,2.3,0.2
				c0.7,0.1,1.3,0.3,1.9,0.5c0.5,0.2,0.9,0.6,1.2,0.9c0.3,0.4,0.5,0.8,0.5,1.4c0,0.5-0.1,0.9-0.3,1.3c-0.2,0.4-0.4,0.7-0.7,0.9
				c-0.2-0.1-0.4-0.2-0.8-0.3s-0.7-0.2-1.1-0.3s-0.8-0.2-1.3-0.2c-0.4-0.1-0.8-0.1-1.2-0.1c-0.7,0-1.3,0.1-1.7,0.2
				c-0.4,0.2-0.6,0.4-0.6,0.8c0,0.2,0.1,0.4,0.3,0.6c0.2,0.2,0.6,0.3,1.2,0.4l1,0.2c2.1,0.5,3.6,1.1,4.5,2
				C-79.9-32.4-79.2-31.4-79.2-30.1z"/>
			<path d="M-76.6-45.7c0-0.8,0.3-1.5,0.8-2.1c0.6-0.6,1.3-0.9,2.2-0.9s1.7,0.3,2.2,0.9c0.6,0.6,0.8,1.3,0.8,2.1s-0.3,1.5-0.8,2.1
				s-1.3,0.9-2.2,0.9s-1.7-0.3-2.2-0.9C-76.3-44.1-76.6-44.8-76.6-45.7z M-70.8-25.3c-0.2,0-0.6,0.1-1.1,0.2s-0.9,0.1-1.4,0.1
				s-0.9,0-1.3-0.1s-0.7-0.2-1-0.4s-0.5-0.5-0.6-0.8s-0.2-0.8-0.2-1.3V-41c0.2,0,0.6-0.1,1.1-0.2s0.9-0.1,1.4-0.1s0.9,0,1.3,0.1
				s0.7,0.2,1,0.4s0.5,0.5,0.6,0.8s0.2,0.8,0.2,1.3V-25.3z"/>
			<path d="M-58.2-37.3c-0.5,0-1.1,0.1-1.6,0.3s-0.9,0.4-1.3,0.8s-0.7,0.8-0.9,1.3s-0.3,1.1-0.3,1.8c0,1.4,0.4,2.4,1.2,3.1
				s1.7,1,2.8,1c0.7,0,1.2-0.1,1.7-0.2c0.5-0.2,0.9-0.3,1.3-0.5c0.4,0.3,0.8,0.6,1,1s0.3,0.8,0.3,1.3c0,0.9-0.4,1.6-1.3,2.1
				s-2,0.7-3.5,0.7c-1.4,0-2.6-0.2-3.7-0.6c-1.1-0.4-2.1-1-2.9-1.7s-1.4-1.6-1.9-2.6c-0.4-1-0.7-2.2-0.7-3.4c0-1.4,0.2-2.7,0.7-3.8
				s1.1-2,1.9-2.7s1.7-1.2,2.8-1.6s2.2-0.5,3.4-0.5c1.6,0,2.8,0.3,3.6,0.9c0.9,0.6,1.3,1.3,1.3,2.2c0,0.4-0.1,0.8-0.3,1.2
				s-0.4,0.7-0.7,0.9c-0.4-0.2-0.8-0.3-1.3-0.5C-57.1-37.3-57.6-37.3-58.2-37.3z"/>
			<path d="M-35.2-33.3c0,1.4-0.2,2.6-0.6,3.6c-0.4,1.1-1,2-1.8,2.7s-1.7,1.3-2.7,1.6s-2.2,0.6-3.5,0.6s-2.5-0.2-3.5-0.6
				s-2-1-2.7-1.7s-1.3-1.6-1.8-2.7s-0.6-2.2-0.6-3.5s0.2-2.5,0.6-3.5c0.4-1,1-1.9,1.8-2.7c0.8-0.7,1.7-1.3,2.7-1.7s2.2-0.6,3.5-0.6
				s2.5,0.2,3.5,0.6s2,1,2.7,1.7c0.8,0.7,1.3,1.6,1.8,2.7C-35.4-35.7-35.2-34.5-35.2-33.3z M-46.7-33.3c0,1.3,0.3,2.4,0.8,3.1
				s1.2,1.1,2.2,1.1s1.6-0.4,2.1-1.1s0.7-1.7,0.7-3.1c0-1.4-0.3-2.3-0.8-3s-1.2-1.1-2.1-1.1s-1.6,0.4-2.1,1.1S-46.7-34.6-46.7-33.3z
				"/>
			<path d="M-32-42.1c0-0.9,0.3-1.7,0.8-2.2s1.3-0.8,2.2-0.8h10.8c0.2,0.2,0.3,0.6,0.4,1s0.2,0.8,0.2,1.2c0,0.8-0.2,1.4-0.5,1.8
				c-0.4,0.4-0.8,0.5-1.4,0.5h-6.9v3.1h7.4c0.2,0.2,0.3,0.6,0.4,0.9c0.1,0.4,0.2,0.8,0.2,1.2c0,0.8-0.2,1.4-0.5,1.8
				c-0.4,0.4-0.8,0.5-1.4,0.5h-6v3.4h8.4c0.2,0.2,0.3,0.6,0.4,1s0.2,0.8,0.2,1.2c0,0.8-0.2,1.4-0.5,1.8c-0.4,0.4-0.8,0.5-1.4,0.5
				H-29c-0.9,0-1.7-0.3-2.2-0.8s-0.8-1.3-0.8-2.2V-42.1z"/>
			<path d="M-7-41.7c0.9,0,1.8,0.1,2.6,0.4c0.9,0.3,1.6,0.6,2.2,1.1c0.7-0.4,1.4-0.8,2.2-1.1s1.8-0.4,3-0.4c0.8,0,1.6,0.1,2.4,0.3
				s1.5,0.6,2.1,1s1.1,1.1,1.5,1.9c0.4,0.8,0.6,1.7,0.6,2.8v10.3c-0.2,0.1-0.6,0.1-1,0.2c-0.5,0.1-1,0.1-1.5,0.1s-0.9,0-1.3-0.1
				s-0.7-0.2-1-0.4s-0.5-0.5-0.6-0.8S4-27.2,4-27.7v-7.8c0-0.7-0.2-1.1-0.6-1.4c-0.4-0.3-0.9-0.4-1.5-0.4c-0.3,0-0.6,0.1-1,0.2
				s-0.6,0.3-0.8,0.4c0,0.1,0,0.2,0,0.2c0,0.1,0,0.1,0,0.2v10.9c-0.2,0.1-0.6,0.1-1.1,0.2C-1.2-25.1-1.7-25-2.2-25s-0.9,0-1.3-0.1
				s-0.7-0.2-1-0.4C-4.7-25.7-4.9-26-5-26.3s-0.2-0.8-0.2-1.3v-7.8c0-0.7-0.2-1.1-0.6-1.4c-0.4-0.3-0.9-0.4-1.5-0.4
				c-0.4,0-0.7,0.1-1,0.2c-0.3-0.1-0.5,0-0.7,0.2v11.5c-0.2,0.1-0.6,0.1-1,0.2c-0.5,0.1-1,0.1-1.5,0.1s-0.9,0-1.3-0.1
				c-0.4-0.1-0.7-0.2-1-0.4c-0.3-0.2-0.5-0.5-0.6-0.8s-0.2-0.8-0.2-1.3v-9.9c0-0.6,0.1-1.1,0.4-1.4c0.3-0.4,0.6-0.7,1-1
				c0.7-0.5,1.7-1,2.8-1.3C-9.3-41.6-8.2-41.7-7-41.7z"/>
			<path d="M29.6-33.3c0,1.4-0.2,2.6-0.6,3.6c-0.4,1.1-1,2-1.8,2.7s-1.7,1.3-2.7,1.6c-1,0.4-2.2,0.6-3.5,0.6s-2.5-0.2-3.5-0.6
				s-2-1-2.7-1.7s-1.3-1.6-1.8-2.7s-0.6-2.2-0.6-3.5s0.2-2.5,0.6-3.5c0.4-1,1-1.9,1.8-2.7c0.8-0.7,1.7-1.3,2.7-1.7s2.2-0.6,3.5-0.6
				s2.5,0.2,3.5,0.6s2,1,2.7,1.7c0.8,0.7,1.3,1.6,1.8,2.7C29.4-35.7,29.6-34.5,29.6-33.3z M18.2-33.3c0,1.3,0.3,2.4,0.8,3.1
				s1.2,1.1,2.1,1.1s1.6-0.4,2.1-1.1s0.7-1.7,0.7-3.1c0-1.4-0.3-2.3-0.8-3s-1.2-1.1-2.1-1.1s-1.6,0.4-2.1,1.1S18.2-34.6,18.2-33.3z"
				/>
			<path d="M38-30.8c0,0.6,0.2,1,0.5,1.2c0.4,0.2,0.9,0.4,1.5,0.4c0.3,0,0.7,0,1-0.1s0.7-0.1,0.9-0.2c0.2,0.2,0.4,0.5,0.5,0.8
				s0.2,0.7,0.2,1.1c0,0.8-0.3,1.5-0.9,2s-1.7,0.8-3.3,0.8c-1.9,0-3.4-0.4-4.4-1.3s-1.6-2.3-1.6-4.3v-14c0.2-0.1,0.6-0.1,1-0.2
				c0.4-0.1,0.9-0.1,1.4-0.1c1,0,1.7,0.2,2.2,0.5s0.8,1.1,0.8,2.2v2.1h4.3c0.1,0.2,0.3,0.5,0.4,0.9s0.2,0.8,0.2,1.2
				c0,0.8-0.2,1.3-0.5,1.7c-0.3,0.3-0.8,0.5-1.4,0.5h-3L38-30.8L38-30.8z"/>
			<path d="M45.4-45.7c0-0.8,0.3-1.5,0.8-2.1c0.6-0.6,1.3-0.9,2.2-0.9s1.7,0.3,2.2,0.9c0.6,0.6,0.8,1.3,0.8,2.1s-0.3,1.5-0.8,2.1
				c-0.6,0.6-1.3,0.9-2.2,0.9s-1.7-0.3-2.2-0.9C45.7-44.1,45.4-44.8,45.4-45.7z M51.2-25.3c-0.2,0-0.6,0.1-1.1,0.2S49.2-25,48.7-25
				s-0.9,0-1.3-0.1c-0.4-0.1-0.7-0.2-1-0.4s-0.5-0.5-0.6-0.8s-0.2-0.8-0.2-1.3V-41c0.2,0,0.6-0.1,1.1-0.2s0.9-0.1,1.4-0.1
				s0.9,0,1.3,0.1c0.4,0.1,0.7,0.2,1,0.4s0.5,0.5,0.6,0.8s0.2,0.8,0.2,1.3V-25.3z"/>
			<path d="M71.3-33.3c0,1.4-0.2,2.6-0.6,3.6c-0.4,1.1-1,2-1.8,2.7s-1.7,1.3-2.7,1.6s-2.2,0.6-3.5,0.6c-1.3,0-2.5-0.2-3.5-0.6
				s-2-1-2.7-1.7s-1.3-1.6-1.8-2.7s-0.6-2.2-0.6-3.5s0.2-2.5,0.6-3.5c0.4-1,1-1.9,1.8-2.7c0.8-0.7,1.7-1.3,2.7-1.7s2.2-0.6,3.5-0.6
				c1.3,0,2.5,0.2,3.5,0.6c1.1,0.4,2,1,2.7,1.7c0.8,0.7,1.3,1.6,1.8,2.7C71.1-35.7,71.3-34.5,71.3-33.3z M59.8-33.3
				c0,1.3,0.3,2.4,0.8,3.1s1.2,1.1,2.2,1.1s1.6-0.4,2.1-1.1s0.7-1.7,0.7-3.1c0-1.4-0.3-2.3-0.8-3s-1.2-1.1-2.1-1.1S61-37,60.5-36.3
				S59.8-34.6,59.8-33.3z"/>
			<path d="M84.1-35.4c0-0.7-0.2-1.2-0.6-1.5s-0.9-0.5-1.6-0.5c-0.4,0-0.9,0.1-1.3,0.2c-0.4,0.1-0.8,0.3-1.1,0.5v11.4
				c-0.2,0.1-0.6,0.1-1,0.2C78-25,77.5-25,77-25s-0.9,0-1.3-0.1s-0.7-0.2-1-0.4c-0.3-0.2-0.5-0.5-0.6-0.8s-0.2-0.8-0.2-1.3v-9.8
				c0-0.6,0.1-1.1,0.4-1.4c0.3-0.3,0.6-0.7,1-1c0.7-0.5,1.7-1,2.8-1.3c1.1-0.3,2.4-0.5,3.8-0.5c2.5,0,4.4,0.5,5.7,1.6
				c1.3,1.1,2,2.6,2,4.5v10.3c-0.2,0.1-0.6,0.1-1,0.2c-0.5,0.1-1,0.1-1.5,0.1s-0.9,0-1.3-0.1s-0.7-0.2-1-0.4s-0.5-0.5-0.6-0.8
				S84-27,84-27.5L84.1-35.4L84.1-35.4z"/>
		</g>
	</g>
	<g style="display:inline;">
		<g>
			<path style="fill:#6A214C;" d="M-5,114.5c0.1,3.4-2.3,6-5.8,6.1c-0.1,0-0.1,0-0.2,0c-0.1,0-0.1,0-0.2,0c-3.4-0.2-5.9-2.8-5.8-6.1
				H-5z"/>
			<path style="fill:#6A214C;" d="M-11,110.3c-3,0-6,0-9.1,0c-1.7,0-2.6-0.8-2.6-2.1c0-1.3,1-2.1,2.7-2.1c6.1,0,12.2,0,18.3,0
				c1.7,0,2.6,0.8,2.7,2c0,1.3-1,2.1-2.7,2.1C-4.9,110.3-8,110.3-11,110.3z"/>
			<path style="fill:#6A214C;" d="M-11.1,102.1c-4,0-7.9,0-11.9,0c-2.2,0-3.4-0.8-3.4-2.1c0-1.3,1.3-2,3.5-2c8,0,16,0,24,0
				c2.2,0,3.5,0.7,3.5,2s-1.3,2.1-3.6,2.1C-3,102.1-7.1,102.1-11.1,102.1z"/>
			<g id="parte_cerebro_5_">
				<path style="fill:#6A214C;" d="M4.3,81.5C4,83,2.8,84.3,1.2,84.6c-0.5,0.1-1.1-0.1-1.4-0.4c-0.8-0.6-1.3-0.5-1.6,0.5
					c-0.1,0.3-0.1,0.7-0.2,1c-0.4,1.9-1.9,3-3.9,2.9s-3.3-1.2-3.3-3.3c-0.1-4.5,0-8.9,0-13.4c0-1,0-2,0-2.8c1.7,0.6,3.3,1.3,4.9,1.8
					c0.5,0.2,1,0.1,1.6,0.1c2.2,0,3.6,1.2,3.7,3.2c0.1,2.2-1.3,4-3.3,4.3c-0.5,0.1-1.1-0.1-1.6,0c-0.4,0.1-0.8,0.3-1.1,0.4
					c0.3,0.4,0.5,1.1,0.8,1.1c0.9,0.2,1.9,0.2,2.8,0c1.7-0.3,2.8-1.5,3.7-3C4,78.3,4.6,79.7,4.3,81.5z"/>
				<path style="fill:#6A214C;" d="M6.1,79.5c-0.5-1.8-1.6-3.1-3.1-4c-0.2-0.1-0.3-0.6-0.3-0.9c0-1.5-0.5-2.8-1.6-3.9
					c-0.4-0.4-0.3-0.7,0-1.1c0.7-0.8,1.3-1.7,2-2.4c0.4-0.4,0.9-0.7,1.4-0.7c2.9-0.1,5.9,2.6,6.3,5.5C11.4,75.5,9.6,78.6,6.1,79.5z"
					/>
				<path style="fill:#6A214C;" d="M18.3,55.8c-1,1.7-2.8,2.5-4.7,2c0-0.4-0.1-0.9-0.1-1.3c-0.2-1.9-1.3-3.2-2.9-4
					c-0.3-0.2-1-0.2-1.3,0.2C9,53,9.4,53.6,9.6,53.8c0.2,0.2,0.5,0.4,0.8,0.6c1.2,1,1.6,2.4,1,3.8c-0.6,1.5-1.9,2.3-3.5,2.2
					c-0.4,0-0.8-0.2-1.2-0.1C6.4,60.4,6,60.7,5.9,61c-0.1,0.2,0.4,0.6,0.6,0.8c1.4,0.8,3.9,0.4,5.2-1.1s3.3-1.4,4.4-0.9
					c0.2,0.1,0.6,0.4,0.8,0.7c1,1.8,1.1,3.6,0,5.4S14,68.4,12,68.2c-0.4-0.1-0.9-0.4-1.2-0.7C9.2,66,7.4,65,5.2,64.8
					c-0.3,0-0.7-0.4-0.7-0.7c-0.1-0.6-0.1-1.2-0.1-1.8c-0.5-4.4-4.9-7.5-9.2-6.5c-0.3,0.1-0.6,0.1-0.8,0.3C-5.8,56.3-6,56.7-6,56.9
					s0.4,0.5,0.6,0.5c0.7,0.1,1.4,0,2.1,0c2.9,0,5.2,1.9,5.8,4.7s-0.7,5.6-3.3,6.8c-2.5,1.2-5.6,0.5-7.3-1.8
					C-8.6,66.4-9,65.4-9,64.5C-9.1,57.3-9,50-9,42.7c0-1.6,0.3-3.2,1.4-4.5c1.7-1.9,4.4-2.2,6.4-0.7c0.2,0.1,1.5,0.8,1.8,0.5
					S0,36.5-0.1,36.3c-0.6-2,4.5-2.8,6.8-1.5C9,36,10,39.1,8.9,41.5c-0.1,0.2-0.2,0.4-0.3,0.5c-0.1,0.3-0.2,1.2,0.2,1.5
					c0.5,0.2,1.1-0.4,1.3-0.8c0.5-0.7,0.7-1.8,1.8-1.8c1.3,0,2.3,0.5,3.1,1.5c1.1,1.4,1.3,2.9,0.6,4.6c-0.7,1.5-2.3,2.4-4,2.3
					c-1.8-0.1-3.1-1-3.6-2.7c-0.7-2.8-3-4.8-6-4.6c-3.2,0.2-5.7,3.2-5.3,6.4c0.1,0.6,0.1,1.4,1,1.3c0.8-0.1,0.8-0.8,0.7-1.4
					c-0.2-2.4,1-4,3.2-4.5c2-0.4,3.8,0.6,4.7,2.8c0.6,1.7,1.6,3.1,3.3,3.9c2,1,4,0.6,5.8-0.6c1-0.7,1.7-0.4,2.4,0.4
					C19,51.7,19.2,54.1,18.3,55.8z"/>
			</g>
			<path id="parte_corazon_5_" style="fill:#6A214C;" d="M-12,63.6c0,8.4,0,15.2,0,21.9c0,1,0.2,2.3-0.7,2.8s-1.9-0.3-2.7-0.9
				c-5.8-3.8-11.3-7.9-16.1-13c-4.1-4.4-7.8-9.2-10-15c-1.4-3.8-2.3-7.6-1.6-11.7c0.7-4.3,2.8-7.8,6.4-10.3
				c6.4-4.5,14.9-4.5,21.3-0.1c0.8,0.5,1.4,1.2,2.1,1.8c0.8,0.7,1.1,1.7,1.2,2.8C-11.8,49.7-12.1,57.4-12,63.6z"/>
			<path style="fill-rule:evenodd;clip-rule:evenodd;fill:#6A214C;" d="M11.1,95.3c-1.5,0.8-3.5,2.6-4.8,0.3
				c-1.4-2.4,1.2-2.9,2.7-3.8C20.7,84.9,27.3,74.6,28.4,61c1.1-14.1-3.8-25.7-14.7-34.6c-7.2-5.9-16-8.8-24.6-8.7
				c-8.7,0-17.4,2.8-24.6,8.7C-46.4,35.3-51.3,46.9-50.2,61c1.1,13.6,7.6,23.9,19.4,30.8c1.5,0.9,4,1.5,2.7,3.8s-3.3,0.5-4.8-0.3
				c-26.4-14.7-29.2-53.1-5-72.3c8.1-6.4,17.2-9.5,27-9.4c9.9-0.1,19,3,27,9.4C40.3,42.2,37.5,80.7,11.1,95.3z"/>
		</g>
		<g>
			<path style="fill:#6A214C;" d="M-105.4,164c-0.2,0.1-0.6,0.1-1.1,0.2c-0.5,0.1-1,0.1-1.5,0.1s-0.9,0-1.3-0.1s-0.7-0.2-1-0.4
				s-0.5-0.5-0.6-0.8c-0.1-0.4-0.2-0.8-0.2-1.4v-15.5c0-0.5,0.1-0.8,0.4-1.1s0.6-0.5,1-0.6c0.7-0.3,1.6-0.5,2.5-0.6
				c1-0.1,1.9-0.2,2.9-0.2c3,0,5.3,0.6,6.9,1.9c1.6,1.3,2.4,3,2.4,5.3c0,1.1-0.2,2-0.5,2.9s-0.8,1.6-1.5,2.2
				c-0.7,0.6-1.5,1.1-2.5,1.4c-1,0.3-2.2,0.5-3.5,0.5h-2.3L-105.4,164L-105.4,164z M-103.7,153.5c0.9,0,1.6-0.2,2.1-0.6
				s0.7-1.1,0.7-2c0-0.8-0.3-1.5-0.8-1.9s-1.3-0.7-2.2-0.7c-0.3,0-0.6,0-0.9,0c-0.2,0-0.5,0-0.7,0.1v5.1L-103.7,153.5L-103.7,153.5z
				"/>
			<path style="fill:#6A214C;" d="M-79.2,159.4c0,1.7-0.6,3-1.9,3.9s-3.1,1.4-5.5,1.4c-0.9,0-1.8-0.1-2.6-0.2
				c-0.8-0.1-1.5-0.3-2-0.6s-1-0.6-1.3-1s-0.5-0.9-0.5-1.5c0-0.5,0.1-1,0.3-1.3c0.2-0.4,0.5-0.7,0.8-0.9c0.6,0.4,1.4,0.7,2.2,0.9
				s1.8,0.4,2.8,0.4c0.7,0,1.2-0.1,1.6-0.3s0.5-0.5,0.5-0.8s-0.1-0.5-0.4-0.7s-0.7-0.3-1.3-0.4l-1-0.2c-1.9-0.4-3.3-1-4.3-1.8
				c-0.9-0.8-1.4-1.9-1.4-3.4c0-0.8,0.2-1.5,0.5-2.2s0.8-1.2,1.5-1.6c0.6-0.4,1.4-0.8,2.3-1s1.9-0.4,2.9-0.4c0.8,0,1.6,0.1,2.3,0.2
				s1.3,0.3,1.9,0.5c0.5,0.2,0.9,0.6,1.2,0.9c0.3,0.4,0.5,0.8,0.5,1.4c0,0.5-0.1,0.9-0.3,1.3c-0.2,0.4-0.4,0.7-0.7,0.9
				c-0.2-0.1-0.4-0.2-0.8-0.3s-0.7-0.2-1.1-0.3s-0.8-0.2-1.3-0.2c-0.4-0.1-0.8-0.1-1.2-0.1c-0.7,0-1.3,0.1-1.7,0.2
				c-0.4,0.2-0.6,0.4-0.6,0.8c0,0.2,0.1,0.4,0.3,0.6c0.2,0.2,0.6,0.3,1.2,0.4l1,0.2c2.1,0.5,3.6,1.1,4.5,2
				C-79.6,157-79.2,158.1-79.2,159.4z"/>
			<path style="fill:#6A214C;" d="M-76.6,143.8c0-0.8,0.3-1.5,0.8-2.1c0.6-0.6,1.3-0.9,2.2-0.9s1.7,0.3,2.2,0.9
				c0.6,0.6,0.8,1.3,0.8,2.1s-0.3,1.5-0.8,2.1s-1.3,0.9-2.2,0.9s-1.7-0.3-2.2-0.9C-76.3,145.3-76.6,144.6-76.6,143.8z M-70.8,164.1
				c-0.2,0-0.6,0.1-1.1,0.2c-0.5,0.1-0.9,0.1-1.4,0.1s-0.9,0-1.3-0.1s-0.7-0.2-1-0.4s-0.5-0.5-0.6-0.8s-0.2-0.8-0.2-1.3v-13.4
				c0.2,0,0.6-0.1,1.1-0.2c0.5-0.1,0.9-0.1,1.4-0.1s0.9,0,1.3,0.1s0.7,0.2,1,0.4s0.5,0.5,0.6,0.8s0.2,0.8,0.2,1.3V164.1z"/>
			<path style="fill:#6A214C;" d="M-58.2,152.1c-0.5,0-1.1,0.1-1.6,0.3s-0.9,0.4-1.3,0.8c-0.4,0.3-0.7,0.8-0.9,1.3s-0.3,1.1-0.3,1.8
				c0,1.4,0.4,2.4,1.2,3.1c0.8,0.7,1.7,1,2.8,1c0.7,0,1.2-0.1,1.7-0.2c0.5-0.2,0.9-0.3,1.3-0.5c0.4,0.3,0.8,0.6,1,1s0.3,0.8,0.3,1.3
				c0,0.9-0.4,1.6-1.3,2.1s-2,0.7-3.5,0.7c-1.4,0-2.6-0.2-3.7-0.6c-1.1-0.4-2.1-1-2.9-1.7s-1.4-1.6-1.9-2.6c-0.4-1-0.7-2.2-0.7-3.4
				c0-1.4,0.2-2.7,0.7-3.8s1.1-2,1.9-2.7s1.7-1.2,2.8-1.6c1.1-0.4,2.2-0.5,3.4-0.5c1.6,0,2.8,0.3,3.6,0.9c0.9,0.6,1.3,1.3,1.3,2.2
				c0,0.4-0.1,0.8-0.3,1.2s-0.4,0.7-0.7,0.9c-0.4-0.2-0.8-0.3-1.3-0.5C-57.1,152.2-57.6,152.1-58.2,152.1z"/>
			<path style="fill:#6A214C;" d="M-35.2,156.2c0,1.4-0.2,2.6-0.6,3.6s-1,2-1.8,2.7s-1.7,1.3-2.7,1.6c-1,0.4-2.2,0.6-3.5,0.6
				s-2.5-0.2-3.5-0.6c-1-0.4-2-1-2.7-1.7s-1.3-1.6-1.8-2.7c-0.4-1.1-0.6-2.2-0.6-3.5s0.2-2.5,0.6-3.5c0.4-1.1,1-1.9,1.8-2.7
				c0.8-0.7,1.7-1.3,2.7-1.7s2.2-0.6,3.5-0.6s2.5,0.2,3.5,0.6c1,0.4,2,1,2.7,1.7s1.3,1.6,1.8,2.7S-35.2,154.9-35.2,156.2z
				 M-46.7,156.2c0,1.3,0.3,2.4,0.8,3.1c0.5,0.7,1.2,1.1,2.2,1.1s1.6-0.4,2.1-1.1c0.5-0.7,0.7-1.7,0.7-3.1s-0.3-2.3-0.8-3
				s-1.2-1.1-2.1-1.1s-1.6,0.4-2.1,1.1S-46.7,154.9-46.7,156.2z"/>
			<path style="fill:#6A214C;" d="M-32,147.3c0-0.9,0.3-1.7,0.8-2.2s1.3-0.8,2.2-0.8h10.8c0.2,0.2,0.3,0.6,0.4,1s0.2,0.8,0.2,1.2
				c0,0.8-0.2,1.4-0.5,1.8c-0.4,0.4-0.8,0.5-1.4,0.5h-6.9v3.1h7.4c0.2,0.2,0.3,0.6,0.4,0.9c0.1,0.4,0.2,0.8,0.2,1.2
				c0,0.8-0.2,1.4-0.5,1.8c-0.4,0.4-0.8,0.5-1.4,0.5h-6v3.4h8.4c0.2,0.2,0.3,0.6,0.4,1s0.2,0.8,0.2,1.2c0,0.8-0.2,1.4-0.5,1.8
				c-0.4,0.4-0.8,0.5-1.4,0.5H-29c-0.9,0-1.7-0.3-2.2-0.8s-0.8-1.3-0.8-2.2V147.3z"/>
			<path style="fill:#6A214C;" d="M-7,147.7c0.9,0,1.8,0.1,2.6,0.4c0.9,0.3,1.6,0.6,2.2,1.1c0.7-0.4,1.4-0.8,2.2-1.1s1.8-0.4,3-0.4
				c0.8,0,1.6,0.1,2.4,0.3s1.5,0.6,2.1,1c0.6,0.5,1.1,1.1,1.5,1.9c0.4,0.8,0.6,1.7,0.6,2.8V164c-0.2,0.1-0.6,0.1-1,0.2
				c-0.5,0.1-1,0.1-1.5,0.1s-0.9,0-1.3-0.1s-0.7-0.2-1-0.4s-0.5-0.5-0.6-0.8S4,162.2,4,161.7V154c0-0.7-0.2-1.1-0.6-1.4
				c-0.4-0.3-0.9-0.4-1.5-0.4c-0.3,0-0.6,0.1-1,0.2s-0.6,0.3-0.8,0.4c0,0.1,0,0.2,0,0.2s0,0.1,0,0.2v10.9c-0.2,0.1-0.6,0.1-1.1,0.2
				c-0.5,0.1-0.9,0.1-1.4,0.1s-0.9,0-1.3-0.1s-0.7-0.2-1-0.4s-0.5-0.5-0.6-0.8s-0.2-0.8-0.2-1.3V154c0-0.7-0.2-1.1-0.6-1.4
				c-0.4-0.3-0.9-0.4-1.5-0.4c-0.4,0-0.7,0.1-1,0.2c-0.3,0.1-0.5,0.2-0.7,0.3v11.5c-0.2,0.1-0.6,0.1-1,0.2s-1,0.1-1.5,0.1
				s-0.9,0-1.3-0.1c-0.4-0.1-0.7-0.2-1-0.4s-0.5-0.5-0.6-0.8s-0.2-0.8-0.2-1.3V152c0-0.6,0.1-1.1,0.4-1.4c0.3-0.4,0.6-0.7,1-1
				c0.7-0.5,1.7-1,2.8-1.3C-9.3,147.9-8.2,147.7-7,147.7z"/>
			<path style="fill:#6A214C;" d="M29.7,156.2c0,1.4-0.2,2.6-0.6,3.6s-1,2-1.8,2.7s-1.7,1.3-2.7,1.6c-1,0.4-2.2,0.6-3.5,0.6
				s-2.5-0.2-3.5-0.6c-1-0.4-2-1-2.7-1.7s-1.3-1.6-1.8-2.7c-0.4-1.1-0.6-2.2-0.6-3.5s0.2-2.5,0.6-3.5c0.4-1.1,1-1.9,1.8-2.7
				c0.8-0.7,1.7-1.3,2.7-1.7s2.2-0.6,3.5-0.6s2.5,0.2,3.5,0.6c1,0.4,2,1,2.7,1.7s1.3,1.6,1.8,2.7S29.7,154.9,29.7,156.2z
				 M18.2,156.2c0,1.3,0.3,2.4,0.8,3.1c0.5,0.7,1.2,1.1,2.1,1.1s1.6-0.4,2.1-1.1c0.5-0.7,0.7-1.7,0.7-3.1s-0.3-2.3-0.8-3
				s-1.2-1.1-2.1-1.1s-1.6,0.4-2.1,1.1S18.2,154.9,18.2,156.2z"/>
			<path style="fill:#6A214C;" d="M38,158.7c0,0.6,0.2,1,0.5,1.2s0.9,0.4,1.5,0.4c0.3,0,0.7,0,1-0.1s0.7-0.1,0.9-0.2
				c0.2,0.2,0.4,0.5,0.5,0.8s0.2,0.7,0.2,1.1c0,0.8-0.3,1.5-0.9,2c-0.6,0.5-1.7,0.8-3.3,0.8c-1.9,0-3.4-0.4-4.4-1.3
				c-1-0.9-1.6-2.3-1.6-4.3v-14c0.2-0.1,0.6-0.1,1-0.2c0.4-0.1,0.9-0.1,1.4-0.1c1,0,1.7,0.2,2.2,0.5s0.8,1.1,0.8,2.1v2.1h4.3
				c0.1,0.2,0.3,0.5,0.4,0.9s0.2,0.8,0.2,1.2c0,0.8-0.2,1.3-0.5,1.7c-0.3,0.3-0.8,0.5-1.4,0.5h-3L38,158.7L38,158.7z"/>
			<path style="fill:#6A214C;" d="M45.4,143.8c0-0.8,0.3-1.5,0.8-2.1c0.6-0.6,1.3-0.9,2.2-0.9s1.7,0.3,2.2,0.9
				c0.6,0.6,0.8,1.3,0.8,2.1s-0.3,1.5-0.8,2.1c-0.6,0.6-1.3,0.9-2.2,0.9s-1.7-0.3-2.2-0.9C45.7,145.3,45.4,144.6,45.4,143.8z
				 M51.2,164.1c-0.2,0-0.6,0.1-1.1,0.2c-0.5,0.1-0.9,0.1-1.4,0.1s-0.9,0-1.3-0.1c-0.4-0.1-0.7-0.2-1-0.4s-0.5-0.5-0.6-0.8
				s-0.2-0.8-0.2-1.3v-13.4c0.2,0,0.6-0.1,1.1-0.2c0.5-0.1,0.9-0.1,1.4-0.1s0.9,0,1.3,0.1s0.7,0.2,1,0.4s0.5,0.5,0.6,0.8
				s0.2,0.8,0.2,1.3V164.1z"/>
			<path style="fill:#6A214C;" d="M71.3,156.2c0,1.4-0.2,2.6-0.6,3.6s-1,2-1.8,2.7s-1.7,1.3-2.7,1.6c-1.1,0.4-2.2,0.6-3.5,0.6
				c-1.3,0-2.5-0.2-3.5-0.6c-1-0.4-2-1-2.7-1.7s-1.3-1.6-1.8-2.7c-0.4-1.1-0.6-2.2-0.6-3.5s0.2-2.5,0.6-3.5c0.4-1.1,1-1.9,1.8-2.7
				c0.8-0.7,1.7-1.3,2.7-1.7s2.2-0.6,3.5-0.6c1.3,0,2.5,0.2,3.5,0.6c1.1,0.4,2,1,2.7,1.7s1.3,1.6,1.8,2.7S71.3,154.9,71.3,156.2z
				 M59.8,156.2c0,1.3,0.3,2.4,0.8,3.1c0.5,0.7,1.2,1.1,2.2,1.1s1.6-0.4,2.1-1.1c0.5-0.7,0.7-1.7,0.7-3.1s-0.3-2.3-0.8-3
				s-1.2-1.1-2.1-1.1s-1.6,0.4-2.1,1.1S59.8,154.9,59.8,156.2z"/>
			<path style="fill:#6A214C;" d="M84.1,154.1c0-0.7-0.2-1.2-0.6-1.5s-0.9-0.5-1.6-0.5c-0.4,0-0.9,0.1-1.3,0.2s-0.8,0.3-1.1,0.5
				v11.4c-0.2,0.1-0.6,0.1-1,0.2s-1,0.1-1.5,0.1s-0.9,0-1.3-0.1s-0.7-0.2-1-0.4s-0.5-0.5-0.6-0.8s-0.2-0.8-0.2-1.3V152
				c0-0.6,0.1-1.1,0.4-1.4s0.6-0.7,1-1c0.7-0.5,1.7-1,2.8-1.3c1.1-0.3,2.4-0.5,3.8-0.5c2.5,0,4.4,0.5,5.7,1.6c1.3,1.1,2,2.6,2,4.5
				v10.3c-0.2,0.1-0.6,0.1-1,0.2c-0.5,0.1-1,0.1-1.5,0.1s-0.9,0-1.3-0.1s-0.7-0.2-1-0.4s-0.5-0.5-0.6-0.8s-0.2-0.8-0.2-1.3
				L84.1,154.1L84.1,154.1z"/>
		</g>
	</g>
	<g style="display:inline;">
		<g>
			<path style="fill:#799B5B;" d="M-5,298.9c0.1,3.4-2.3,6-5.8,6.1c-0.1,0-0.1,0-0.2,0c-0.1,0-0.1,0-0.2,0c-3.4-0.2-5.9-2.8-5.8-6.1
				H-5z"/>
			<path style="fill:#799B5B;" d="M-11,294.7c-3,0-6,0-9.1,0c-1.7,0-2.6-0.8-2.6-2.1c0-1.3,1-2.1,2.7-2.1c6.1,0,12.2,0,18.3,0
				c1.7,0,2.6,0.8,2.7,2c0,1.3-1,2.1-2.7,2.1C-4.9,294.7-8,294.7-11,294.7z"/>
			<path style="fill:#799B5B;" d="M-11.1,286.4c-4,0-7.9,0-11.9,0c-2.2,0-3.4-0.8-3.4-2.1c0-1.3,1.3-2,3.5-2c8,0,16,0,24,0
				c2.2,0,3.5,0.7,3.5,2s-1.3,2.1-3.6,2.1C-3,286.5-7.1,286.4-11.1,286.4z"/>
			<g id="parte_cerebro_6_">
				<path style="fill:#799B5B;" d="M4.3,265.9c-0.3,1.5-1.5,2.8-3.1,3.1c-0.5,0.1-1.1-0.1-1.4-0.4c-0.8-0.6-1.3-0.5-1.6,0.5
					c-0.1,0.3-0.1,0.7-0.2,1c-0.4,1.9-1.9,3-3.9,2.9s-3.3-1.2-3.3-3.3c-0.1-4.5,0-8.9,0-13.4c0-1,0-2,0-2.8c1.7,0.6,3.3,1.3,4.9,1.8
					c0.5,0.2,1,0.1,1.6,0.1c2.2,0,3.6,1.2,3.7,3.2c0.1,2.2-1.3,4-3.3,4.3c-0.5,0.1-1.1-0.1-1.6,0c-0.4,0.1-0.8,0.3-1.1,0.4
					c0.3,0.4,0.5,1.1,0.8,1.1c0.9,0.2,1.9,0.2,2.8,0c1.7-0.3,2.8-1.5,3.7-3C4,262.7,4.6,264.1,4.3,265.9z"/>
				<path style="fill:#799B5B;" d="M6.1,263.9c-0.5-1.8-1.6-3.1-3.1-4c-0.2-0.1-0.3-0.6-0.3-0.9c0-1.5-0.5-2.8-1.6-3.9
					c-0.4-0.4-0.3-0.7,0-1.1c0.7-0.8,1.3-1.7,2-2.4c0.4-0.4,0.9-0.7,1.4-0.7c2.9-0.1,5.9,2.6,6.3,5.5C11.4,259.9,9.6,263,6.1,263.9z
					"/>
				<path style="fill:#799B5B;" d="M18.3,240.1c-1,1.7-2.8,2.5-4.7,2c0-0.4-0.1-0.9-0.1-1.3c-0.2-1.9-1.3-3.2-2.9-4
					c-0.3-0.2-1-0.2-1.3,0.2c-0.2,0.3,0.2,0.9,0.4,1.1c0.2,0.2,0.5,0.4,0.8,0.6c1.2,1,1.6,2.4,1,3.8c-0.6,1.5-1.9,2.3-3.5,2.2
					c-0.4,0-0.8-0.2-1.2-0.1c-0.3,0.1-0.7,0.4-0.8,0.8c-0.1,0.2,0.4,0.6,0.6,0.8c1.4,0.8,3.9,0.4,5.2-1.1s3.3-1.4,4.4-0.9
					c0.2,0.1,0.6,0.4,0.8,0.7c1,1.8,1.1,3.6,0,5.4c-1.1,1.8-2.9,2.5-4.9,2.3c-0.4-0.1-0.9-0.4-1.2-0.7c-1.6-1.5-3.4-2.5-5.6-2.7
					c-0.3,0-0.7-0.4-0.7-0.7c-0.1-0.6-0.1-1.2-0.1-1.8c-0.5-4.4-4.9-7.5-9.2-6.5c-0.3,0.1-0.6,0.1-0.8,0.3c-0.2,0.2-0.4,0.6-0.4,0.8
					s0.4,0.5,0.6,0.5c0.7,0.1,1.4,0,2.1,0c2.9,0,5.2,1.9,5.8,4.7s-0.7,5.6-3.3,6.8c-2.5,1.2-5.6,0.5-7.3-1.8
					c-0.5-0.7-0.9-1.7-0.9-2.6c-0.1-7.2,0-14.5,0-21.8c0-1.6,0.3-3.2,1.4-4.5c1.7-1.9,4.4-2.2,6.4-0.7c0.2,0.1,1.5,0.8,1.8,0.5
					s-0.6-1.5-0.7-1.7c-0.6-2,4.5-2.8,6.8-1.5s3.3,4.4,2.2,6.8c-0.1,0.2-0.2,0.4-0.3,0.5c-0.1,0.3-0.2,1.2,0.2,1.5
					c0.5,0.2,1.1-0.4,1.3-0.8c0.5-0.7,0.7-1.8,1.8-1.8c1.3,0,2.3,0.5,3.1,1.5c1.1,1.4,1.3,2.9,0.6,4.6c-0.7,1.5-2.3,2.4-4,2.3
					c-1.8-0.1-3.1-1-3.6-2.7c-0.8-2.6-3.1-4.7-6.1-4.4c-3.2,0.2-5.7,3.2-5.3,6.4c0.1,0.6,0.1,1.4,1,1.3c0.8-0.1,0.8-0.8,0.7-1.4
					c-0.2-2.4,1-4,3.2-4.5c2-0.4,3.8,0.6,4.7,2.8c0.6,1.7,1.6,3.1,3.3,3.9c2,1,4,0.6,5.8-0.6c1-0.7,1.7-0.4,2.4,0.4
					C19,236.1,19.2,238.5,18.3,240.1z"/>
			</g>
			<path id="parte_corazon_6_" style="fill:#799B5B;" d="M-12,248c0,8.4,0,15.1,0,21.9c0,1,0.2,2.3-0.7,2.8s-1.9-0.3-2.7-0.9
				c-5.8-3.8-11.3-7.9-16.1-13c-4.1-4.4-7.8-9.2-10-15c-1.4-3.8-2.3-7.6-1.6-11.7c0.7-4.3,2.8-7.8,6.4-10.3
				c6.4-4.5,14.9-4.5,21.3-0.1c0.8,0.5,1.4,1.2,2.1,1.8c0.8,0.7,1.1,1.7,1.2,2.8C-11.8,234.1-12.1,241.8-12,248z"/>
			<path style="fill-rule:evenodd;clip-rule:evenodd;fill:#799B5B;" d="M11.1,279.7c-1.5,0.8-3.5,2.6-4.8,0.3
				c-1.4-2.4,1.2-2.9,2.7-3.8c11.7-6.9,18.3-17.2,19.4-30.8c1.1-14.1-3.8-25.7-14.7-34.6c-7.2-5.9-16-8.8-24.6-8.7
				c-8.7,0-17.4,2.8-24.6,8.7c-10.8,8.9-15.8,20.5-14.7,34.6c1.1,13.6,7.6,23.9,19.4,30.8c1.5,0.9,4,1.5,2.7,3.8s-3.3,0.5-4.8-0.3
				c-26.4-14.7-29.2-53.1-5-72.3c8.1-6.4,17.2-9.5,27-9.4c9.9-0.1,19,3,27,9.4C40.3,226.6,37.5,265,11.1,279.7z"/>
		</g>
		<g>
			<path style="fill:#799B5B;" d="M-105.4,348.4c-0.2,0.1-0.6,0.1-1.1,0.2s-1,0.1-1.5,0.1s-0.9,0-1.3-0.1s-0.7-0.2-1-0.4
				c-0.3-0.2-0.5-0.5-0.6-0.8c-0.1-0.4-0.2-0.8-0.2-1.4v-15.5c0-0.5,0.1-0.8,0.4-1.1s0.6-0.5,1-0.6c0.7-0.3,1.6-0.5,2.5-0.6
				c1-0.1,1.9-0.2,2.9-0.2c3,0,5.3,0.6,6.9,1.9s2.4,3,2.4,5.3c0,1.1-0.2,2-0.5,2.9s-0.8,1.6-1.5,2.2s-1.5,1.1-2.5,1.4
				s-2.2,0.5-3.5,0.5h-2.3L-105.4,348.4L-105.4,348.4z M-103.7,337.9c0.9,0,1.6-0.2,2.1-0.6s0.7-1.1,0.7-2c0-0.8-0.3-1.5-0.8-1.9
				s-1.3-0.7-2.2-0.7c-0.3,0-0.6,0-0.9,0c-0.2,0-0.5,0-0.7,0.1v5.1H-103.7z"/>
			<path style="fill:#799B5B;" d="M-79.2,343.8c0,1.7-0.6,3-1.9,3.9s-3.1,1.4-5.5,1.4c-0.9,0-1.8-0.1-2.6-0.2
				c-0.8-0.1-1.5-0.3-2-0.6s-1-0.6-1.3-1s-0.5-0.9-0.5-1.5c0-0.5,0.1-1,0.3-1.3c0.2-0.4,0.5-0.7,0.8-0.9c0.6,0.4,1.4,0.7,2.2,0.9
				c0.8,0.3,1.8,0.4,2.8,0.4c0.7,0,1.2-0.1,1.6-0.3c0.4-0.2,0.5-0.5,0.5-0.8s-0.1-0.5-0.4-0.7s-0.7-0.3-1.3-0.4l-1-0.2
				c-1.9-0.4-3.3-1-4.3-1.8c-0.9-0.8-1.4-1.9-1.4-3.4c0-0.8,0.2-1.5,0.5-2.2s0.8-1.2,1.5-1.6c0.6-0.4,1.4-0.8,2.3-1s1.9-0.4,2.9-0.4
				c0.8,0,1.6,0.1,2.3,0.2s1.3,0.3,1.9,0.5c0.5,0.2,0.9,0.6,1.2,0.9c0.3,0.4,0.5,0.8,0.5,1.4c0,0.5-0.1,0.9-0.3,1.3
				c-0.2,0.4-0.4,0.7-0.7,0.9c-0.2-0.1-0.4-0.2-0.8-0.3c-0.4-0.1-0.7-0.2-1.1-0.3s-0.8-0.2-1.3-0.2c-0.4-0.1-0.8-0.1-1.2-0.1
				c-0.7,0-1.3,0.1-1.7,0.2c-0.4,0.2-0.6,0.4-0.6,0.8c0,0.2,0.1,0.4,0.3,0.6c0.2,0.2,0.6,0.3,1.2,0.4l1,0.2c2.1,0.5,3.6,1.1,4.5,2
				C-79.6,341.4-79.2,342.5-79.2,343.8z"/>
			<path style="fill:#799B5B;" d="M-76.6,328.2c0-0.8,0.3-1.5,0.8-2.1c0.6-0.6,1.3-0.9,2.2-0.9s1.7,0.3,2.2,0.9
				c0.6,0.6,0.8,1.3,0.8,2.1c0,0.8-0.3,1.5-0.8,2.1s-1.3,0.9-2.2,0.9s-1.7-0.3-2.2-0.9C-76.3,329.7-76.6,329-76.6,328.2z
				 M-70.8,348.5c-0.2,0-0.6,0.1-1.1,0.2s-0.9,0.1-1.4,0.1s-0.9,0-1.3-0.1s-0.7-0.2-1-0.4c-0.3-0.2-0.5-0.5-0.6-0.8
				s-0.2-0.8-0.2-1.3v-13.4c0.2,0,0.6-0.1,1.1-0.2s0.9-0.1,1.4-0.1s0.9,0,1.3,0.1s0.7,0.2,1,0.4c0.3,0.2,0.5,0.5,0.6,0.8
				s0.2,0.8,0.2,1.3V348.5z"/>
			<path style="fill:#799B5B;" d="M-58.2,336.5c-0.5,0-1.1,0.1-1.6,0.3c-0.5,0.2-0.9,0.4-1.3,0.8c-0.4,0.3-0.7,0.8-0.9,1.3
				s-0.3,1.1-0.3,1.8c0,1.4,0.4,2.4,1.2,3.1s1.7,1,2.8,1c0.7,0,1.2-0.1,1.7-0.2c0.5-0.2,0.9-0.3,1.3-0.5c0.4,0.3,0.8,0.6,1,1
				s0.3,0.8,0.3,1.3c0,0.9-0.4,1.6-1.3,2.1s-2,0.7-3.5,0.7c-1.4,0-2.6-0.2-3.7-0.6c-1.1-0.4-2.1-1-2.9-1.7s-1.4-1.6-1.9-2.6
				c-0.4-1-0.7-2.2-0.7-3.4c0-1.4,0.2-2.7,0.7-3.8c0.5-1.1,1.1-2,1.9-2.7s1.7-1.2,2.8-1.6s2.2-0.5,3.4-0.5c1.6,0,2.8,0.3,3.6,0.9
				c0.9,0.6,1.3,1.3,1.3,2.2c0,0.4-0.1,0.8-0.3,1.2s-0.4,0.7-0.7,0.9c-0.4-0.2-0.8-0.3-1.3-0.5C-57.1,336.6-57.6,336.5-58.2,336.5z"
				/>
			<path style="fill:#799B5B;" d="M-35.2,340.6c0,1.4-0.2,2.6-0.6,3.6s-1,2-1.8,2.7s-1.7,1.3-2.7,1.6c-1,0.4-2.2,0.6-3.5,0.6
				s-2.5-0.2-3.5-0.6s-2-1-2.7-1.7s-1.3-1.6-1.8-2.7c-0.4-1.1-0.6-2.2-0.6-3.5s0.2-2.5,0.6-3.5c0.4-1,1-1.9,1.8-2.7
				c0.8-0.7,1.7-1.3,2.7-1.7s2.2-0.6,3.5-0.6s2.5,0.2,3.5,0.6s2,1,2.7,1.7s1.3,1.6,1.8,2.7C-35.4,338.2-35.2,339.3-35.2,340.6z
				 M-46.7,340.6c0,1.3,0.3,2.4,0.8,3.1s1.2,1.1,2.2,1.1s1.6-0.4,2.1-1.1s0.7-1.7,0.7-3.1s-0.3-2.3-0.8-3s-1.2-1.1-2.1-1.1
				s-1.6,0.4-2.1,1.1S-46.7,339.3-46.7,340.6z"/>
			<path style="fill:#799B5B;" d="M-32,331.7c0-0.9,0.3-1.7,0.8-2.2s1.3-0.8,2.2-0.8h10.8c0.2,0.2,0.3,0.6,0.4,1s0.2,0.8,0.2,1.2
				c0,0.8-0.2,1.4-0.5,1.8c-0.4,0.4-0.8,0.5-1.4,0.5h-6.9v3.1h7.4c0.2,0.2,0.3,0.6,0.4,0.9c0.1,0.4,0.2,0.8,0.2,1.2
				c0,0.8-0.2,1.4-0.5,1.8c-0.4,0.4-0.8,0.5-1.4,0.5h-6v3.4h8.4c0.2,0.2,0.3,0.6,0.4,1s0.2,0.8,0.2,1.2c0,0.8-0.2,1.4-0.5,1.8
				c-0.4,0.4-0.8,0.5-1.4,0.5H-29c-0.9,0-1.7-0.3-2.2-0.8s-0.8-1.3-0.8-2.2V331.7z"/>
			<path style="fill:#799B5B;" d="M-7,332.1c0.9,0,1.8,0.1,2.6,0.4c0.9,0.3,1.6,0.6,2.2,1.1c0.7-0.4,1.4-0.8,2.2-1.1
				c0.8-0.3,1.8-0.4,3-0.4c0.8,0,1.6,0.1,2.4,0.3c0.8,0.2,1.5,0.6,2.1,1c0.6,0.5,1.1,1.1,1.5,1.9s0.6,1.7,0.6,2.8v10.3
				c-0.2,0.1-0.6,0.1-1,0.2c-0.5,0.1-1,0.1-1.5,0.1s-0.9,0-1.3-0.1s-0.7-0.2-1-0.4c-0.3-0.2-0.5-0.5-0.6-0.8S4,346.6,4,346.1v-7.8
				c0-0.7-0.2-1.1-0.6-1.4s-0.9-0.4-1.5-0.4c-0.3,0-0.6,0.1-1,0.2s-0.6,0.3-0.8,0.4c0,0.1,0,0.2,0,0.2s0,0.1,0,0.2v10.9
				c-0.2,0.1-0.6,0.1-1.1,0.2s-0.9,0.1-1.4,0.1s-0.9,0-1.3-0.1s-0.7-0.2-1-0.4c-0.3-0.2-0.5-0.5-0.6-0.8s-0.2-0.8-0.2-1.3v-7.8
				c0-0.7-0.2-1.1-0.6-1.4s-0.9-0.4-1.5-0.4c-0.4,0-0.7,0.1-1,0.2s-0.5,0.2-0.7,0.3v11.5c-0.2,0.1-0.6,0.1-1,0.2s-1,0.1-1.5,0.1
				s-0.9,0-1.3-0.1c-0.4-0.1-0.7-0.2-1-0.4c-0.3-0.2-0.5-0.5-0.6-0.8s-0.2-0.8-0.2-1.3v-9.9c0-0.6,0.1-1.1,0.4-1.4
				c0.3-0.4,0.6-0.7,1-1c0.7-0.5,1.7-1,2.8-1.3C-9.3,332.3-8.2,332.1-7,332.1z"/>
			<path style="fill:#799B5B;" d="M29.7,340.6c0,1.4-0.2,2.6-0.6,3.6s-1,2-1.8,2.7s-1.7,1.3-2.7,1.6c-1,0.4-2.2,0.6-3.5,0.6
				s-2.5-0.2-3.5-0.6s-2-1-2.7-1.7s-1.3-1.6-1.8-2.7c-0.4-1.1-0.6-2.2-0.6-3.5s0.2-2.5,0.6-3.5c0.4-1,1-1.9,1.8-2.7
				c0.8-0.7,1.7-1.3,2.7-1.7s2.2-0.6,3.5-0.6s2.5,0.2,3.5,0.6s2,1,2.7,1.7s1.3,1.6,1.8,2.7C29.4,338.2,29.7,339.3,29.7,340.6z
				 M18.2,340.6c0,1.3,0.3,2.4,0.8,3.1s1.2,1.1,2.1,1.1s1.6-0.4,2.1-1.1s0.7-1.7,0.7-3.1s-0.3-2.3-0.8-3s-1.2-1.1-2.1-1.1
				s-1.6,0.4-2.1,1.1S18.2,339.3,18.2,340.6z"/>
			<path style="fill:#799B5B;" d="M38,343.1c0,0.6,0.2,1,0.5,1.2s0.9,0.4,1.5,0.4c0.3,0,0.7,0,1-0.1s0.7-0.1,0.9-0.2
				c0.2,0.2,0.4,0.5,0.5,0.8s0.2,0.7,0.2,1.1c0,0.8-0.3,1.5-0.9,2c-0.6,0.5-1.7,0.8-3.3,0.8c-1.9,0-3.4-0.4-4.4-1.3
				s-1.6-2.3-1.6-4.3v-14c0.2-0.1,0.6-0.1,1-0.2s0.9-0.1,1.4-0.1c1,0,1.7,0.2,2.2,0.5s0.8,1.1,0.8,2.1v2.1h4.3
				c0.1,0.2,0.3,0.5,0.4,0.9c0.1,0.4,0.2,0.8,0.2,1.2c0,0.8-0.2,1.3-0.5,1.7c-0.3,0.3-0.8,0.5-1.4,0.5h-3L38,343.1L38,343.1z"/>
			<path style="fill:#799B5B;" d="M45.4,328.2c0-0.8,0.3-1.5,0.8-2.1c0.6-0.6,1.3-0.9,2.2-0.9s1.7,0.3,2.2,0.9
				c0.6,0.6,0.8,1.3,0.8,2.1c0,0.8-0.3,1.5-0.8,2.1c-0.6,0.6-1.3,0.9-2.2,0.9s-1.7-0.3-2.2-0.9S45.4,329,45.4,328.2z M51.2,348.5
				c-0.2,0-0.6,0.1-1.1,0.2s-0.9,0.1-1.4,0.1s-0.9,0-1.3-0.1c-0.4-0.1-0.7-0.2-1-0.4c-0.3-0.2-0.5-0.5-0.6-0.8s-0.2-0.8-0.2-1.3
				v-13.4c0.2,0,0.6-0.1,1.1-0.2s0.9-0.1,1.4-0.1s0.9,0,1.3,0.1s0.7,0.2,1,0.4c0.3,0.2,0.5,0.5,0.6,0.8s0.2,0.8,0.2,1.3V348.5z"/>
			<path style="fill:#799B5B;" d="M71.3,340.6c0,1.4-0.2,2.6-0.6,3.6s-1,2-1.8,2.7s-1.7,1.3-2.7,1.6c-1.1,0.4-2.2,0.6-3.5,0.6
				c-1.3,0-2.5-0.2-3.5-0.6s-2-1-2.7-1.7s-1.3-1.6-1.8-2.7c-0.4-1.1-0.6-2.2-0.6-3.5s0.2-2.5,0.6-3.5c0.4-1,1-1.9,1.8-2.7
				c0.8-0.7,1.7-1.3,2.7-1.7s2.2-0.6,3.5-0.6c1.3,0,2.5,0.2,3.5,0.6c1.1,0.4,2,1,2.7,1.7s1.3,1.6,1.8,2.7
				C71.1,338.2,71.3,339.3,71.3,340.6z M59.8,340.6c0,1.3,0.3,2.4,0.8,3.1s1.2,1.1,2.2,1.1s1.6-0.4,2.1-1.1s0.7-1.7,0.7-3.1
				s-0.3-2.3-0.8-3s-1.2-1.1-2.1-1.1s-1.6,0.4-2.1,1.1S59.8,339.3,59.8,340.6z"/>
			<path style="fill:#799B5B;" d="M84.1,338.5c0-0.7-0.2-1.2-0.6-1.5s-0.9-0.5-1.6-0.5c-0.4,0-0.9,0.1-1.3,0.2s-0.8,0.3-1.1,0.5
				v11.4c-0.2,0.1-0.6,0.1-1,0.2s-1,0.1-1.5,0.1s-0.9,0-1.3-0.1s-0.7-0.2-1-0.4c-0.3-0.2-0.5-0.5-0.6-0.8s-0.2-0.8-0.2-1.3v-9.8
				c0-0.6,0.1-1.1,0.4-1.4s0.6-0.7,1-1c0.7-0.5,1.7-1,2.8-1.3c1.1-0.3,2.4-0.5,3.8-0.5c2.5,0,4.4,0.5,5.7,1.6c1.3,1.1,2,2.6,2,4.5
				v10.3c-0.2,0.1-0.6,0.1-1,0.2c-0.5,0.1-1,0.1-1.5,0.1s-0.9,0-1.3-0.1s-0.7-0.2-1-0.4c-0.3-0.2-0.5-0.5-0.6-0.8s-0.2-0.8-0.2-1.3
				L84.1,338.5L84.1,338.5z"/>
		</g>
	</g>
	<g style="display:inline;">
		<rect x="115.3" y="-210.9" width="236.2" height="201.9"/>
		<g>
			<path style="fill:#FFFFFF;" d="M230.8-74.9c0.1,3.4-2.3,6-5.8,6.1c-0.1,0-0.1,0-0.2,0s-0.1,0-0.2,0c-3.4-0.2-5.9-2.8-5.8-6.1
				H230.8z"/>
			<path style="fill:#FFFFFF;" d="M224.8-79.2c-3,0-6,0-9.1,0c-1.7,0-2.6-0.8-2.6-2.1c0-1.3,1-2.1,2.7-2.1c6.1,0,12.2,0,18.3,0
				c1.7,0,2.6,0.8,2.7,2c0,1.3-1,2.1-2.7,2.1C230.9-79.2,227.8-79.2,224.8-79.2z"/>
			<path style="fill:#FFFFFF;" d="M224.7-87.4c-4,0-7.9,0-11.9,0c-2.2,0-3.4-0.8-3.4-2.1c0-1.3,1.3-2,3.5-2c8,0,16,0,24,0
				c2.2,0,3.5,0.7,3.5,2s-1.3,2.1-3.6,2.1C232.8-87.4,228.7-87.4,224.7-87.4z"/>
			<g id="parte_cerebro_8_">
				<path style="fill:#FFFFFF;" d="M240.1-108c-0.3,1.5-1.5,2.8-3.1,3.1c-0.5,0.1-1.1-0.1-1.4-0.4c-0.8-0.6-1.3-0.5-1.6,0.5
					c-0.1,0.3-0.1,0.7-0.2,1c-0.4,1.9-1.9,3-3.9,2.9s-3.3-1.2-3.3-3.3c-0.1-4.5,0-8.9,0-13.4c0-1,0-2,0-2.8c1.7,0.6,3.3,1.3,4.9,1.8
					c0.5,0.2,1,0.1,1.6,0.1c2.2,0,3.6,1.2,3.7,3.2c0.1,2.2-1.3,4-3.3,4.3c-0.5,0.1-1.1-0.1-1.6,0c-0.4,0.1-0.8,0.3-1.1,0.4
					c0.3,0.4,0.5,1.1,0.8,1.1c0.9,0.2,1.9,0.2,2.8,0c1.7-0.3,2.8-1.5,3.7-3C239.8-111.2,240.4-109.7,240.1-108z"/>
				<path style="fill:#FFFFFF;" d="M241.9-109.9c-0.5-1.8-1.6-3.1-3.1-4c-0.2-0.1-0.3-0.6-0.3-0.9c0-1.5-0.5-2.8-1.6-3.9
					c-0.4-0.4-0.3-0.7,0-1.1c0.7-0.8,1.3-1.7,2-2.4c0.4-0.4,0.9-0.7,1.4-0.7c2.9-0.1,5.9,2.6,6.3,5.5
					C247.2-114,245.4-110.9,241.9-109.9z"/>
				<path style="fill:#FFFFFF;" d="M254.1-133.7c-1,1.7-2.8,2.5-4.7,2c0-0.4-0.1-0.9-0.1-1.3c-0.2-1.9-1.3-3.2-2.9-4
					c-0.3-0.2-1-0.2-1.3,0.2c-0.2,0.3,0.2,0.9,0.4,1.1c0.2,0.2,0.5,0.4,0.8,0.6c1.2,1,1.6,2.4,1,3.8c-0.6,1.5-1.9,2.3-3.5,2.2
					c-0.4,0-0.8-0.2-1.2-0.1c-0.3,0.1-0.7,0.4-0.8,0.8c-0.1,0.2,0.4,0.6,0.6,0.8c1.4,0.8,3.9,0.4,5.2-1.1c1.3-1.5,3.3-1.4,4.4-0.9
					c0.2,0.1,0.6,0.4,0.8,0.7c1,1.8,1.1,3.6,0,5.4s-2.9,2.5-4.9,2.3c-0.4-0.1-0.9-0.4-1.2-0.7c-1.6-1.5-3.4-2.5-5.6-2.7
					c-0.3,0-0.7-0.4-0.7-0.7c-0.1-0.6-0.1-1.2-0.1-1.8c-0.5-4.4-4.9-7.5-9.2-6.5c-0.3,0.1-0.6,0.1-0.8,0.3s-0.4,0.6-0.4,0.8
					s0.4,0.5,0.6,0.5c0.7,0.1,1.4,0,2.1,0c2.9,0,5.2,1.9,5.8,4.7s-0.7,5.6-3.3,6.8c-2.5,1.2-5.6,0.5-7.3-1.8
					c-0.5-0.7-0.9-1.7-0.9-2.6c-0.1-7.2,0-14.5,0-21.8c0-1.6,0.3-3.2,1.4-4.5c1.7-1.9,4.4-2.2,6.4-0.7c0.2,0.1,1.5,0.8,1.8,0.5
					s-0.6-1.5-0.7-1.7c-0.6-2,4.5-2.8,6.8-1.5s3.3,4.4,2.2,6.8c-0.1,0.2-0.2,0.4-0.3,0.5c-0.1,0.3-0.2,1.2,0.2,1.5
					c0.5,0.2,1.1-0.4,1.3-0.8c0.5-0.7,0.7-1.8,1.8-1.8c1.3,0,2.3,0.5,3.1,1.5c1.1,1.4,1.3,2.9,0.6,4.6c-0.7,1.5-2.3,2.4-4,2.3
					c-1.8-0.1-3.1-1-3.6-2.7c-0.8-2.6-3.1-4.7-6.1-4.4c-3.2,0.2-5.7,3.2-5.3,6.4c0.1,0.6,0.1,1.4,1,1.3c0.8-0.1,0.8-0.8,0.7-1.4
					c-0.2-2.4,1-4,3.2-4.5c2-0.4,3.8,0.6,4.7,2.8c0.6,1.7,1.6,3.1,3.3,3.9c2,1,4,0.6,5.8-0.6c1-0.7,1.7-0.4,2.4,0.4
					C254.8-137.8,255-135.4,254.1-133.7z"/>
			</g>
			<path id="parte_corazon_8_" style="fill:#FFFFFF;" d="M223.8-125.9c0,8.4,0,15.2,0,21.9c0,1,0.2,2.3-0.7,2.8s-1.9-0.3-2.7-0.9
				c-5.8-3.8-11.3-7.9-16.1-13c-4.1-4.4-7.8-9.2-10-15c-1.4-3.8-2.3-7.6-1.6-11.7c0.7-4.3,2.8-7.8,6.4-10.3
				c6.4-4.5,14.9-4.5,21.3-0.1c0.8,0.5,1.4,1.2,2.1,1.8c0.8,0.7,1.1,1.7,1.2,2.8C224-139.8,223.7-132.1,223.8-125.9z"/>
			<path style="fill-rule:evenodd;clip-rule:evenodd;fill:#FFFFFF;" d="M246.9-94.1c-1.5,0.8-3.5,2.6-4.8,0.3
				c-1.4-2.4,1.2-2.9,2.7-3.8c11.7-6.9,18.3-17.2,19.4-30.8c1.1-14.1-3.8-25.7-14.7-34.6c-7.2-5.9-16-8.8-24.6-8.7
				c-8.7,0-17.4,2.8-24.6,8.7c-10.8,8.9-15.8,20.5-14.7,34.6c1.1,13.6,7.6,23.9,19.4,30.8c1.5,0.9,4,1.5,2.7,3.8s-3.3,0.5-4.8-0.3
				c-26.4-14.7-29.2-53.1-5-72.3c8.1-6.4,17.2-9.5,27-9.4c9.9-0.1,18.9,3,27,9.4C276.1-147.2,273.3-108.8,246.9-94.1z"/>
		</g>
		<g>
			<path style="fill:#FFFFFF;" d="M130.4-25.4c-0.2,0.1-0.6,0.1-1.1,0.2s-1,0.1-1.5,0.1s-0.9,0-1.3-0.1s-0.7-0.2-1-0.4
				c-0.3-0.2-0.5-0.5-0.6-0.8c-0.1-0.4-0.2-0.8-0.2-1.4v-15.5c0-0.5,0.1-0.8,0.4-1.1s0.6-0.5,1-0.6c0.7-0.3,1.6-0.5,2.5-0.6
				c1-0.1,1.9-0.2,2.9-0.2c3,0,5.3,0.6,6.9,1.9c1.6,1.3,2.4,3,2.4,5.3c0,1.1-0.2,2-0.5,2.9s-0.8,1.6-1.5,2.2
				c-0.7,0.6-1.5,1.1-2.5,1.4s-2.2,0.5-3.5,0.5h-2.3L130.4-25.4L130.4-25.4z M132.1-36c0.9,0,1.6-0.2,2.1-0.6c0.5-0.4,0.7-1.1,0.7-2
				c0-0.8-0.3-1.5-0.8-1.9s-1.3-0.7-2.2-0.7c-0.4,0-0.6,0-0.9,0c-0.2,0-0.5,0-0.7,0.1v5.1L132.1-36L132.1-36z"/>
			<path style="fill:#FFFFFF;" d="M156.6-30.1c0,1.7-0.6,3-1.9,3.9c-1.2,0.9-3.1,1.4-5.5,1.4c-0.9,0-1.8-0.1-2.6-0.2s-1.5-0.3-2-0.6
				c-0.5-0.3-1-0.6-1.3-1s-0.5-0.9-0.5-1.5c0-0.5,0.1-1,0.3-1.3c0.2-0.4,0.5-0.7,0.8-0.9c0.6,0.4,1.4,0.7,2.2,0.9
				c0.8,0.3,1.8,0.4,2.8,0.4c0.7,0,1.2-0.1,1.6-0.3c0.4-0.2,0.5-0.5,0.5-0.8s-0.1-0.5-0.4-0.7c-0.3-0.2-0.7-0.3-1.3-0.4l-1-0.2
				c-1.9-0.4-3.3-1-4.3-1.8c-0.9-0.8-1.4-1.9-1.4-3.4c0-0.8,0.2-1.5,0.5-2.2c0.4-0.7,0.8-1.2,1.5-1.6c0.6-0.4,1.4-0.8,2.3-1
				s1.9-0.4,2.9-0.4c0.8,0,1.6,0.1,2.3,0.2c0.7,0.1,1.3,0.3,1.9,0.5c0.5,0.2,0.9,0.6,1.2,0.9c0.3,0.4,0.5,0.8,0.5,1.4
				c0,0.5-0.1,0.9-0.3,1.3c-0.2,0.4-0.4,0.7-0.7,0.9c-0.2-0.1-0.4-0.2-0.8-0.3c-0.4-0.1-0.7-0.2-1.1-0.3c-0.4-0.1-0.8-0.2-1.3-0.2
				c-0.4-0.1-0.8-0.1-1.2-0.1c-0.7,0-1.3,0.1-1.7,0.2c-0.4,0.1-0.6,0.4-0.6,0.8c0,0.2,0.1,0.4,0.3,0.6s0.6,0.3,1.2,0.4l1,0.2
				c2.1,0.5,3.6,1.1,4.5,2C155.9-32.4,156.6-31.4,156.6-30.1z"/>
			<path style="fill:#FFFFFF;" d="M159.2-45.7c0-0.8,0.3-1.5,0.8-2.1c0.6-0.6,1.3-0.9,2.2-0.9s1.7,0.3,2.2,0.9
				c0.6,0.6,0.8,1.3,0.8,2.1s-0.3,1.5-0.8,2.1s-1.3,0.9-2.2,0.9s-1.7-0.3-2.2-0.9C159.5-44.1,159.2-44.8,159.2-45.7z M165-25.3
				c-0.2,0-0.6,0.1-1.1,0.2S163-25,162.5-25s-0.9,0-1.3-0.1c-0.4-0.1-0.7-0.2-1-0.4s-0.5-0.5-0.6-0.8s-0.2-0.8-0.2-1.3V-41
				c0.2,0,0.6-0.1,1.1-0.2s0.9-0.1,1.4-0.1s0.9,0,1.3,0.1c0.4,0.1,0.7,0.2,1,0.4s0.5,0.5,0.6,0.8s0.2,0.8,0.2,1.3V-25.3z"/>
			<path style="fill:#FFFFFF;" d="M177.6-37.3c-0.5,0-1.1,0.1-1.6,0.3s-0.9,0.4-1.3,0.8s-0.7,0.8-0.9,1.3s-0.3,1.1-0.3,1.8
				c0,1.4,0.4,2.4,1.2,3.1s1.7,1,2.8,1c0.7,0,1.2-0.1,1.7-0.2c0.5-0.2,0.9-0.3,1.3-0.5c0.4,0.3,0.8,0.6,1,1s0.3,0.8,0.3,1.3
				c0,0.9-0.4,1.6-1.3,2.1s-2,0.7-3.5,0.7c-1.4,0-2.6-0.2-3.7-0.6c-1.1-0.4-2.1-1-2.9-1.7s-1.4-1.6-1.9-2.6c-0.4-1-0.7-2.2-0.7-3.4
				c0-1.4,0.2-2.7,0.7-3.8s1.1-2,1.9-2.7c0.8-0.7,1.7-1.2,2.8-1.6s2.2-0.5,3.4-0.5c1.6,0,2.8,0.3,3.6,0.9c0.9,0.6,1.3,1.3,1.3,2.2
				c0,0.4-0.1,0.8-0.3,1.2s-0.4,0.7-0.7,0.9c-0.4-0.2-0.8-0.3-1.3-0.5C178.7-37.3,178.2-37.3,177.6-37.3z"/>
			<path style="fill:#FFFFFF;" d="M200.6-33.3c0,1.4-0.2,2.6-0.6,3.6c-0.4,1.1-1,2-1.8,2.7s-1.7,1.3-2.7,1.6
				c-1.1,0.4-2.2,0.6-3.5,0.6s-2.5-0.2-3.5-0.6c-1.1-0.4-2-1-2.7-1.7c-0.8-0.7-1.3-1.6-1.8-2.7s-0.6-2.2-0.6-3.5s0.2-2.5,0.6-3.5
				c0.4-1,1-1.9,1.8-2.7c0.8-0.7,1.7-1.3,2.7-1.7c1.1-0.4,2.2-0.6,3.5-0.6s2.5,0.2,3.5,0.6c1.1,0.4,2,1,2.7,1.7
				c0.8,0.7,1.3,1.6,1.8,2.7C200.4-35.7,200.6-34.5,200.6-33.3z M189.1-33.3c0,1.3,0.3,2.4,0.8,3.1s1.2,1.1,2.1,1.1s1.6-0.4,2.1-1.1
				s0.7-1.7,0.7-3.1c0-1.4-0.3-2.3-0.8-3s-1.2-1.1-2.1-1.1c-0.9,0-1.6,0.4-2.1,1.1S189.1-34.6,189.1-33.3z"/>
			<path style="fill:#FFFFFF;" d="M203.8-42.1c0-0.9,0.3-1.7,0.8-2.2s1.3-0.8,2.2-0.8h10.8c0.2,0.2,0.3,0.6,0.4,1
				c0.1,0.4,0.2,0.8,0.2,1.2c0,0.8-0.2,1.4-0.5,1.8c-0.4,0.4-0.8,0.5-1.4,0.5h-6.9v3.1h7.4c0.2,0.2,0.3,0.6,0.4,0.9
				c0.1,0.4,0.2,0.8,0.2,1.2c0,0.8-0.2,1.4-0.5,1.8c-0.4,0.4-0.8,0.5-1.4,0.5h-6v3.4h8.4c0.2,0.2,0.3,0.6,0.4,1
				c0.1,0.4,0.2,0.8,0.2,1.2c0,0.8-0.2,1.4-0.5,1.8c-0.4,0.4-0.8,0.5-1.4,0.5H207c-0.9,0-1.7-0.3-2.2-0.8s-0.8-1.3-0.8-2.2
				L203.8-42.1L203.8-42.1z"/>
			<path style="fill:#FFFFFF;" d="M228.8-41.7c0.9,0,1.8,0.1,2.6,0.4c0.9,0.3,1.6,0.6,2.2,1.1c0.7-0.4,1.4-0.8,2.2-1.1
				s1.8-0.4,3-0.4c0.8,0,1.6,0.1,2.4,0.3s1.5,0.6,2.1,1c0.6,0.5,1.1,1.1,1.5,1.9c0.4,0.8,0.6,1.7,0.6,2.8v10.3
				c-0.2,0.1-0.6,0.1-1,0.2s-1,0.1-1.5,0.1s-0.9,0-1.3-0.1c-0.4-0.1-0.7-0.2-1-0.4s-0.5-0.5-0.6-0.8s-0.2-0.8-0.2-1.3v-7.8
				c0-0.7-0.2-1.1-0.6-1.4c-0.4-0.3-0.9-0.4-1.5-0.4c-0.3,0-0.6,0.1-1,0.2s-0.6,0.3-0.8,0.4c0,0.1,0,0.2,0,0.2c0,0.1,0,0.1,0,0.2
				v10.9c-0.2,0.1-0.6,0.1-1.1,0.2s-0.9,0.1-1.4,0.1s-0.9,0-1.3-0.1c-0.4-0.1-0.7-0.2-1-0.4c-0.3-0.2-0.5-0.5-0.6-0.8
				s-0.2-0.8-0.2-1.3v-7.8c0-0.7-0.2-1.1-0.6-1.4c-0.4-0.3-0.9-0.4-1.5-0.4c-0.4,0-0.7,0.1-1,0.2s-0.5,0.2-0.7,0.3v11.5
				c-0.2,0.1-0.6,0.1-1,0.2s-1,0.1-1.5,0.1s-0.9,0-1.3-0.1c-0.4-0.1-0.7-0.2-1-0.4c-0.3-0.2-0.5-0.5-0.6-0.8s-0.2-0.8-0.2-1.3v-9.9
				c0-0.6,0.1-1.1,0.4-1.4c0.3-0.4,0.6-0.7,1-1c0.7-0.5,1.7-1,2.8-1.3C226.5-41.6,227.6-41.7,228.8-41.7z"/>
			<path style="fill:#FFFFFF;" d="M265.5-33.3c0,1.4-0.2,2.6-0.6,3.6c-0.4,1.1-1,2-1.8,2.7s-1.7,1.3-2.7,1.6c-1,0.4-2.2,0.6-3.5,0.6
				c-1.3,0-2.5-0.2-3.5-0.6c-1.1-0.4-2-1-2.7-1.7s-1.3-1.6-1.8-2.7c-0.4-1-0.6-2.2-0.6-3.5s0.2-2.5,0.6-3.5c0.4-1,1-1.9,1.8-2.7
				c0.8-0.7,1.7-1.3,2.7-1.7c1.1-0.4,2.2-0.6,3.5-0.6c1.3,0,2.5,0.2,3.5,0.6c1.1,0.4,2,1,2.7,1.7c0.8,0.7,1.3,1.6,1.8,2.7
				C265.2-35.7,265.5-34.5,265.5-33.3z M254-33.3c0,1.3,0.3,2.4,0.8,3.1s1.2,1.1,2.1,1.1s1.6-0.4,2.1-1.1s0.7-1.7,0.7-3.1
				c0-1.4-0.3-2.3-0.8-3s-1.2-1.1-2.1-1.1s-1.6,0.4-2.1,1.1C254.2-35.6,254-34.6,254-33.3z"/>
			<path style="fill:#FFFFFF;" d="M273.8-30.8c0,0.6,0.2,1,0.5,1.2c0.4,0.2,0.9,0.4,1.5,0.4c0.3,0,0.7,0,1-0.1
				c0.4-0.1,0.7-0.1,0.9-0.2c0.2,0.2,0.4,0.5,0.5,0.8s0.2,0.7,0.2,1.1c0,0.8-0.3,1.5-0.9,2s-1.7,0.8-3.3,0.8c-1.9,0-3.4-0.4-4.4-1.3
				s-1.6-2.3-1.6-4.3v-14c0.2-0.1,0.6-0.1,1-0.2c0.4-0.1,0.9-0.1,1.4-0.1c1,0,1.7,0.2,2.2,0.5s0.8,1.1,0.8,2.2v2.1h4.3
				c0.1,0.2,0.3,0.5,0.4,0.9s0.2,0.8,0.2,1.2c0,0.8-0.2,1.3-0.5,1.7c-0.3,0.3-0.8,0.5-1.4,0.5h-3L273.8-30.8L273.8-30.8z"/>
			<path style="fill:#FFFFFF;" d="M281.2-45.7c0-0.8,0.3-1.5,0.8-2.1c0.6-0.6,1.3-0.9,2.2-0.9s1.7,0.3,2.2,0.9
				c0.6,0.6,0.8,1.3,0.8,2.1s-0.3,1.5-0.8,2.1c-0.6,0.6-1.3,0.9-2.2,0.9s-1.7-0.3-2.2-0.9C281.5-44.1,281.2-44.8,281.2-45.7z
				 M287-25.3c-0.2,0-0.6,0.1-1.1,0.2S285-25,284.5-25s-0.9,0-1.3-0.1s-0.7-0.2-1-0.4s-0.5-0.5-0.6-0.8s-0.2-0.8-0.2-1.3V-41
				c0.2,0,0.6-0.1,1.1-0.2s0.9-0.1,1.4-0.1s0.9,0,1.3,0.1s0.7,0.2,1,0.4s0.5,0.5,0.6,0.8s0.2,0.8,0.2,1.3V-25.3L287-25.3z"/>
			<path style="fill:#FFFFFF;" d="M307.1-33.3c0,1.4-0.2,2.6-0.6,3.6c-0.4,1.1-1,2-1.8,2.7s-1.7,1.3-2.7,1.6c-1,0.4-2.2,0.6-3.5,0.6
				S296-25,295-25.4s-2-1-2.7-1.7s-1.3-1.6-1.8-2.7c-0.4-1-0.6-2.2-0.6-3.5s0.2-2.5,0.6-3.5s1-1.9,1.8-2.7c0.8-0.7,1.7-1.3,2.7-1.7
				c1.1-0.4,2.2-0.6,3.5-0.6s2.5,0.2,3.5,0.6c1.1,0.4,2,1,2.7,1.7c0.8,0.7,1.3,1.6,1.8,2.7C306.9-35.7,307.1-34.5,307.1-33.3z
				 M295.6-33.3c0,1.3,0.3,2.4,0.8,3.1s1.2,1.1,2.1,1.1s1.6-0.4,2.1-1.1s0.7-1.7,0.7-3.1c0-1.4-0.3-2.3-0.8-3s-1.2-1.1-2.1-1.1
				s-1.6,0.4-2.1,1.1C295.8-35.6,295.6-34.6,295.6-33.3z"/>
			<path style="fill:#FFFFFF;" d="M319.9-35.4c0-0.7-0.2-1.2-0.6-1.5s-0.9-0.5-1.6-0.5c-0.4,0-0.9,0.1-1.3,0.2
				c-0.4,0.1-0.8,0.3-1.1,0.5v11.4c-0.2,0.1-0.6,0.1-1,0.2c-0.5,0.1-1,0.1-1.5,0.1s-0.9,0-1.3-0.1s-0.7-0.2-1-0.4
				c-0.3-0.2-0.5-0.5-0.6-0.8s-0.2-0.8-0.2-1.3v-9.8c0-0.6,0.1-1.1,0.4-1.4c0.3-0.3,0.6-0.7,1-1c0.7-0.5,1.7-1,2.8-1.3
				c1.1-0.3,2.4-0.5,3.8-0.5c2.5,0,4.4,0.5,5.7,1.6s2,2.6,2,4.5v10.3c-0.2,0.1-0.6,0.1-1,0.2c-0.5,0.1-1,0.1-1.5,0.1s-0.9,0-1.3-0.1
				s-0.7-0.2-1-0.4s-0.5-0.5-0.6-0.8s-0.2-0.8-0.2-1.3L319.9-35.4L319.9-35.4z"/>
		</g>
	</g>
	<g style="display:inline;">
		<g>
			<path style="fill:#5B5B5F;" d="M230.8,114.5c0.1,3.4-2.3,6-5.8,6.1c-0.1,0-0.1,0-0.2,0s-0.1,0-0.2,0c-3.4-0.2-5.9-2.8-5.8-6.1
				H230.8z"/>
			<path style="fill:#5B5B5F;" d="M224.8,110.3c-3,0-6,0-9.1,0c-1.7,0-2.6-0.8-2.6-2.1c0-1.3,1-2.1,2.7-2.1c6.1,0,12.2,0,18.3,0
				c1.7,0,2.6,0.8,2.7,2c0,1.3-1,2.1-2.7,2.1C230.9,110.3,227.8,110.3,224.8,110.3z"/>
			<path style="fill:#5B5B5F;" d="M224.7,102.1c-4,0-7.9,0-11.9,0c-2.2,0-3.4-0.8-3.4-2.1c0-1.3,1.3-2,3.5-2c8,0,16,0,24,0
				c2.2,0,3.5,0.7,3.5,2s-1.3,2.1-3.6,2.1C232.8,102.1,228.7,102.1,224.7,102.1z"/>
			<g id="parte_cerebro_7_">
				<path style="fill:#5B5B5F;" d="M240.1,81.5c-0.3,1.5-1.5,2.8-3.1,3.1c-0.5,0.1-1.1-0.1-1.4-0.4c-0.8-0.6-1.3-0.5-1.6,0.5
					c-0.1,0.3-0.1,0.7-0.2,1c-0.4,1.9-1.9,3-3.9,2.9s-3.3-1.2-3.3-3.3c-0.1-4.5,0-8.9,0-13.4c0-1,0-2,0-2.8c1.7,0.6,3.3,1.3,4.9,1.8
					c0.5,0.2,1,0.1,1.6,0.1c2.2,0,3.6,1.2,3.7,3.2c0.1,2.2-1.3,4-3.3,4.3c-0.5,0.1-1.1-0.1-1.6,0c-0.4,0.1-0.8,0.3-1.1,0.4
					c0.3,0.4,0.5,1.1,0.8,1.1c0.9,0.2,1.9,0.2,2.8,0c1.7-0.3,2.8-1.5,3.7-3C239.8,78.3,240.4,79.7,240.1,81.5z"/>
				<path style="fill:#5B5B5F;" d="M241.9,79.5c-0.5-1.8-1.6-3.1-3.1-4c-0.2-0.1-0.3-0.6-0.3-0.9c0-1.5-0.5-2.8-1.6-3.9
					c-0.4-0.4-0.3-0.7,0-1.1c0.7-0.8,1.3-1.7,2-2.4c0.4-0.4,0.9-0.7,1.4-0.7c2.9-0.1,5.9,2.6,6.3,5.5
					C247.2,75.5,245.4,78.6,241.9,79.5z"/>
				<path style="fill:#5B5B5F;" d="M254.1,55.8c-1,1.7-2.8,2.5-4.7,2c0-0.4-0.1-0.9-0.1-1.3c-0.2-1.9-1.3-3.2-2.9-4
					c-0.3-0.2-1-0.2-1.3,0.2c-0.2,0.3,0.2,0.9,0.4,1.1c0.2,0.2,0.5,0.4,0.8,0.6c1.2,1,1.6,2.4,1,3.8c-0.6,1.5-1.9,2.3-3.5,2.2
					c-0.4,0-0.8-0.2-1.2-0.1c-0.3,0.1-0.7,0.4-0.8,0.8c-0.1,0.2,0.4,0.6,0.6,0.8c1.4,0.8,3.9,0.4,5.2-1.1s3.3-1.4,4.4-0.9
					c0.2,0.1,0.6,0.4,0.8,0.7c1,1.8,1.1,3.6,0,5.4s-2.9,2.5-4.9,2.3c-0.4-0.1-0.9-0.4-1.2-0.7c-1.6-1.5-3.4-2.5-5.6-2.7
					c-0.3,0-0.7-0.4-0.7-0.7c-0.1-0.6-0.1-1.2-0.1-1.8c-0.5-4.4-4.9-7.5-9.2-6.5c-0.3,0.1-0.6,0.1-0.8,0.3s-0.4,0.6-0.4,0.8
					s0.4,0.5,0.6,0.5c0.7,0.1,1.4,0,2.1,0c2.9,0,5.2,1.9,5.8,4.7c0.6,2.8-0.7,5.6-3.3,6.8c-2.5,1.2-5.6,0.5-7.3-1.8
					c-0.5-0.7-0.9-1.7-0.9-2.6c-0.1-7.2,0-14.5,0-21.8c0-1.6,0.3-3.2,1.4-4.5c1.7-1.9,4.4-2.2,6.4-0.7c0.2,0.1,1.5,0.8,1.8,0.5
					s-0.6-1.5-0.7-1.7c-0.6-2,4.5-2.8,6.8-1.5s3.3,4.4,2.2,6.8c-0.1,0.2-0.2,0.4-0.3,0.5c-0.1,0.3-0.2,1.2,0.2,1.5
					c0.5,0.2,1.1-0.4,1.3-0.8c0.5-0.7,0.7-1.8,1.8-1.8c1.3,0,2.3,0.5,3.1,1.5c1.1,1.4,1.3,2.9,0.6,4.6c-0.7,1.5-2.3,2.4-4,2.3
					c-1.8-0.1-3.1-1-3.6-2.7c-0.8-2.6-3.1-4.7-6.1-4.4c-3.2,0.2-5.7,3.2-5.3,6.4c0.1,0.6,0.1,1.4,1,1.3c0.8-0.1,0.8-0.8,0.7-1.4
					c-0.2-2.4,1-4,3.2-4.5c2-0.4,3.8,0.6,4.7,2.8c0.6,1.7,1.6,3.1,3.3,3.9c2,1,4,0.6,5.8-0.6c1-0.7,1.7-0.4,2.4,0.4
					C254.8,51.7,255,54.1,254.1,55.8z"/>
			</g>
			<path id="parte_corazon_7_" style="fill:#5B5B5F;" d="M223.8,63.6c0,8.4,0,15.2,0,21.9c0,1,0.2,2.3-0.7,2.8s-1.9-0.3-2.7-0.9
				c-5.8-3.8-11.3-7.9-16.1-13c-4.1-4.4-7.8-9.2-10-15c-1.4-3.8-2.3-7.6-1.6-11.7c0.7-4.3,2.8-7.8,6.4-10.3
				c6.4-4.5,14.9-4.5,21.3-0.1c0.8,0.5,1.4,1.2,2.1,1.8c0.8,0.7,1.1,1.7,1.2,2.8C224,49.7,223.7,57.4,223.8,63.6z"/>
			<path style="fill-rule:evenodd;clip-rule:evenodd;fill:#5B5B5F;" d="M246.9,95.3c-1.5,0.8-3.5,2.6-4.8,0.3
				c-1.4-2.4,1.2-2.9,2.7-3.8c11.7-6.9,18.3-17.2,19.4-30.8c1.1-14.1-3.8-25.7-14.7-34.6c-7.2-5.9-16-8.8-24.6-8.7
				c-8.7,0-17.4,2.8-24.6,8.7c-10.8,8.9-15.8,20.5-14.7,34.6c1.1,13.6,7.6,23.9,19.4,30.8c1.5,0.9,4,1.5,2.7,3.8s-3.3,0.5-4.8-0.3
				c-26.4-14.7-29.2-53.1-5-72.3c8.1-6.4,17.2-9.5,27-9.4c9.9-0.1,18.9,3,27,9.4C276.1,42.2,273.3,80.7,246.9,95.3z"/>
		</g>
		<g>
			<path style="fill:#5B5B5F;" d="M130.4,164.1c-0.2,0.1-0.6,0.1-1.1,0.2c-0.5,0.1-1,0.1-1.5,0.1s-0.9,0-1.3-0.1s-0.7-0.2-1-0.4
				s-0.5-0.5-0.6-0.8c-0.1-0.4-0.2-0.8-0.2-1.4v-15.5c0-0.5,0.1-0.8,0.4-1.1s0.6-0.5,1-0.6c0.7-0.3,1.6-0.5,2.5-0.6
				c1-0.1,1.9-0.2,2.9-0.2c3,0,5.3,0.6,6.9,1.9c1.6,1.3,2.4,3,2.4,5.3c0,1.1-0.2,2-0.5,2.9s-0.8,1.6-1.5,2.2
				c-0.7,0.6-1.5,1.1-2.5,1.4c-1,0.3-2.2,0.5-3.5,0.5h-2.3L130.4,164.1L130.4,164.1z M132.1,153.5c0.9,0,1.6-0.2,2.1-0.6
				s0.7-1.1,0.7-2c0-0.8-0.3-1.5-0.8-1.9s-1.3-0.7-2.2-0.7c-0.4,0-0.6,0-0.9,0c-0.2,0-0.5,0-0.7,0.1v5.1L132.1,153.5L132.1,153.5z"
				/>
			<path style="fill:#5B5B5F;" d="M156.6,159.4c0,1.7-0.6,3-1.9,3.9c-1.2,0.9-3.1,1.4-5.5,1.4c-0.9,0-1.8-0.1-2.6-0.2
				c-0.8-0.1-1.5-0.3-2-0.6s-1-0.6-1.3-1s-0.5-0.9-0.5-1.5c0-0.5,0.1-1,0.3-1.3c0.2-0.4,0.5-0.7,0.8-0.9c0.6,0.4,1.4,0.7,2.2,0.9
				s1.8,0.4,2.8,0.4c0.7,0,1.2-0.1,1.6-0.3c0.4-0.2,0.5-0.5,0.5-0.8s-0.1-0.5-0.4-0.7s-0.7-0.3-1.3-0.4l-1-0.2
				c-1.9-0.4-3.3-1-4.3-1.8c-0.9-0.8-1.4-1.9-1.4-3.4c0-0.8,0.2-1.5,0.5-2.2s0.8-1.2,1.5-1.6c0.6-0.4,1.4-0.8,2.3-1
				c0.9-0.2,1.9-0.4,2.9-0.4c0.8,0,1.6,0.1,2.3,0.2s1.3,0.3,1.9,0.5c0.5,0.2,0.9,0.6,1.2,0.9c0.3,0.4,0.5,0.8,0.5,1.4
				c0,0.5-0.1,0.9-0.3,1.3c-0.2,0.4-0.4,0.7-0.7,0.9c-0.2-0.1-0.4-0.2-0.8-0.3c-0.4-0.1-0.7-0.2-1.1-0.3s-0.8-0.2-1.3-0.2
				c-0.4-0.1-0.8-0.1-1.2-0.1c-0.7,0-1.3,0.1-1.7,0.2s-0.6,0.4-0.6,0.8c0,0.2,0.1,0.4,0.3,0.6c0.2,0.2,0.6,0.3,1.2,0.4l1,0.2
				c2.1,0.5,3.6,1.1,4.5,2C156.2,157,156.6,158.1,156.6,159.4z"/>
			<path style="fill:#5B5B5F;" d="M159.2,143.8c0-0.8,0.3-1.5,0.8-2.1c0.6-0.6,1.3-0.9,2.2-0.9s1.7,0.3,2.2,0.9
				c0.6,0.6,0.8,1.3,0.8,2.1s-0.3,1.5-0.8,2.1s-1.3,0.9-2.2,0.9s-1.7-0.3-2.2-0.9C159.5,145.3,159.2,144.6,159.2,143.8z M165,164.1
				c-0.2,0-0.6,0.1-1.1,0.2c-0.5,0.1-0.9,0.1-1.4,0.1s-0.9,0-1.3-0.1c-0.4-0.1-0.7-0.2-1-0.4s-0.5-0.5-0.6-0.8s-0.2-0.8-0.2-1.3
				v-13.4c0.2,0,0.6-0.1,1.1-0.2c0.5-0.1,0.9-0.1,1.4-0.1s0.9,0,1.3,0.1s0.7,0.2,1,0.4s0.5,0.5,0.6,0.8s0.2,0.8,0.2,1.3V164.1z"/>
			<path style="fill:#5B5B5F;" d="M177.6,152.1c-0.5,0-1.1,0.1-1.6,0.3s-0.9,0.4-1.3,0.8c-0.4,0.3-0.7,0.8-0.9,1.3s-0.3,1.1-0.3,1.8
				c0,1.4,0.4,2.4,1.2,3.1c0.8,0.7,1.7,1,2.8,1c0.7,0,1.2-0.1,1.7-0.2c0.5-0.2,0.9-0.3,1.3-0.5c0.4,0.3,0.8,0.6,1,1s0.3,0.8,0.3,1.3
				c0,0.9-0.4,1.6-1.3,2.1s-2,0.7-3.5,0.7c-1.4,0-2.6-0.2-3.7-0.6c-1.1-0.4-2.1-1-2.9-1.7s-1.4-1.6-1.9-2.6c-0.4-1-0.7-2.2-0.7-3.4
				c0-1.4,0.2-2.7,0.7-3.8s1.1-2,1.9-2.7c0.8-0.7,1.7-1.2,2.8-1.6c1.1-0.4,2.2-0.5,3.4-0.5c1.6,0,2.8,0.3,3.6,0.9
				c0.9,0.6,1.3,1.3,1.3,2.2c0,0.4-0.1,0.8-0.3,1.2s-0.4,0.7-0.7,0.9c-0.4-0.2-0.8-0.3-1.3-0.5C178.7,152.2,178.2,152.1,177.6,152.1
				z"/>
			<path style="fill:#5B5B5F;" d="M200.6,156.2c0,1.4-0.2,2.6-0.6,3.6s-1,2-1.8,2.7s-1.7,1.3-2.7,1.6c-1.1,0.4-2.2,0.6-3.5,0.6
				s-2.5-0.2-3.5-0.6c-1.1-0.4-2-1-2.7-1.7s-1.3-1.6-1.8-2.7c-0.4-1.1-0.6-2.2-0.6-3.5s0.2-2.5,0.6-3.5c0.4-1.1,1-1.9,1.8-2.7
				c0.8-0.7,1.7-1.3,2.7-1.7c1.1-0.4,2.2-0.6,3.5-0.6s2.5,0.2,3.5,0.6c1.1,0.4,2,1,2.7,1.7s1.3,1.6,1.8,2.7S200.6,154.9,200.6,156.2
				z M189.1,156.2c0,1.3,0.3,2.4,0.8,3.1c0.5,0.7,1.2,1.1,2.1,1.1s1.6-0.4,2.1-1.1c0.5-0.7,0.7-1.7,0.7-3.1s-0.3-2.3-0.8-3
				s-1.2-1.1-2.1-1.1c-0.9,0-1.6,0.4-2.1,1.1S189.1,154.9,189.1,156.2z"/>
			<path style="fill:#5B5B5F;" d="M203.8,147.3c0-0.9,0.3-1.7,0.8-2.2s1.3-0.8,2.2-0.8h10.8c0.2,0.2,0.3,0.6,0.4,1
				c0.1,0.4,0.2,0.8,0.2,1.2c0,0.8-0.2,1.4-0.5,1.8c-0.4,0.4-0.8,0.5-1.4,0.5h-6.9v3.1h7.4c0.2,0.2,0.3,0.6,0.4,0.9
				c0.1,0.4,0.2,0.8,0.2,1.2c0,0.8-0.2,1.4-0.5,1.8c-0.4,0.4-0.8,0.5-1.4,0.5h-6v3.4h8.4c0.2,0.2,0.3,0.6,0.4,1
				c0.1,0.4,0.2,0.8,0.2,1.2c0,0.8-0.2,1.4-0.5,1.8c-0.4,0.4-0.8,0.5-1.4,0.5H207c-0.9,0-1.7-0.3-2.2-0.8s-0.8-1.3-0.8-2.2
				L203.8,147.3L203.8,147.3z"/>
			<path style="fill:#5B5B5F;" d="M228.8,147.7c0.9,0,1.8,0.1,2.6,0.4c0.9,0.3,1.6,0.6,2.2,1.1c0.7-0.4,1.4-0.8,2.2-1.1
				s1.8-0.4,3-0.4c0.8,0,1.6,0.1,2.4,0.3c0.8,0.2,1.5,0.6,2.1,1c0.6,0.5,1.1,1.1,1.5,1.9c0.4,0.8,0.6,1.7,0.6,2.8V164
				c-0.2,0.1-0.6,0.1-1,0.2s-1,0.1-1.5,0.1s-0.9,0-1.3-0.1c-0.4-0.1-0.7-0.2-1-0.4s-0.5-0.5-0.6-0.8s-0.2-0.8-0.2-1.3V154
				c0-0.7-0.2-1.1-0.6-1.4c-0.4-0.3-0.9-0.4-1.5-0.4c-0.3,0-0.6,0.1-1,0.2s-0.6,0.3-0.8,0.4c0,0.1,0,0.2,0,0.2s0,0.1,0,0.2v10.9
				c-0.2,0.1-0.6,0.1-1.1,0.2c-0.5,0.1-0.9,0.1-1.4,0.1s-0.9,0-1.3-0.1c-0.4-0.1-0.7-0.2-1-0.4s-0.5-0.5-0.6-0.8s-0.2-0.8-0.2-1.3
				V154c0-0.7-0.2-1.1-0.6-1.4c-0.4-0.3-0.9-0.4-1.5-0.4c-0.4,0-0.7,0.1-1,0.2c-0.3,0.1-0.5,0.2-0.7,0.3v11.5
				c-0.2,0.1-0.6,0.1-1,0.2s-1,0.1-1.5,0.1s-0.9,0-1.3-0.1c-0.4-0.1-0.7-0.2-1-0.4s-0.5-0.5-0.6-0.8s-0.2-0.8-0.2-1.3V152
				c0-0.6,0.1-1.1,0.4-1.4c0.3-0.4,0.6-0.7,1-1c0.7-0.5,1.7-1,2.8-1.3C226.5,147.9,227.6,147.7,228.8,147.7z"/>
			<path style="fill:#5B5B5F;" d="M265.5,156.2c0,1.4-0.2,2.6-0.6,3.6c-0.4,1.1-1,2-1.8,2.7s-1.7,1.3-2.7,1.6
				c-1,0.4-2.2,0.6-3.5,0.6c-1.3,0-2.5-0.2-3.5-0.6c-1.1-0.4-2-1-2.7-1.7s-1.3-1.6-1.8-2.7c-0.4-1.1-0.6-2.2-0.6-3.5
				s0.2-2.5,0.6-3.5c0.4-1.1,1-1.9,1.8-2.7c0.8-0.7,1.7-1.3,2.7-1.7c1.1-0.4,2.2-0.6,3.5-0.6c1.3,0,2.5,0.2,3.5,0.6
				c1.1,0.4,2,1,2.7,1.7s1.3,1.6,1.8,2.7C265.2,153.8,265.5,154.9,265.5,156.2z M254,156.2c0,1.3,0.3,2.4,0.8,3.1
				c0.5,0.7,1.2,1.1,2.1,1.1s1.6-0.4,2.1-1.1c0.5-0.7,0.7-1.7,0.7-3.1s-0.3-2.3-0.8-3s-1.2-1.1-2.1-1.1s-1.6,0.4-2.1,1.1
				C254.2,153.9,254,154.9,254,156.2z"/>
			<path style="fill:#5B5B5F;" d="M273.8,158.7c0,0.6,0.2,1,0.5,1.2s0.9,0.4,1.5,0.4c0.3,0,0.7,0,1-0.1c0.4-0.1,0.7-0.1,0.9-0.2
				c0.2,0.2,0.4,0.5,0.5,0.8s0.2,0.7,0.2,1.1c0,0.8-0.3,1.5-0.9,2s-1.7,0.8-3.3,0.8c-1.9,0-3.4-0.4-4.4-1.3s-1.6-2.3-1.6-4.3v-14
				c0.2-0.1,0.6-0.1,1-0.2c0.4-0.1,0.9-0.1,1.4-0.1c1,0,1.7,0.2,2.2,0.5s0.8,1.1,0.8,2.1v2.1h4.3c0.1,0.2,0.3,0.5,0.4,0.9
				s0.2,0.8,0.2,1.2c0,0.8-0.2,1.3-0.5,1.7c-0.3,0.3-0.8,0.5-1.4,0.5h-3L273.8,158.7L273.8,158.7z"/>
			<path style="fill:#5B5B5F;" d="M281.2,143.8c0-0.8,0.3-1.5,0.8-2.1c0.6-0.6,1.3-0.9,2.2-0.9s1.7,0.3,2.2,0.9
				c0.6,0.6,0.8,1.3,0.8,2.1s-0.3,1.5-0.8,2.1c-0.6,0.6-1.3,0.9-2.2,0.9s-1.7-0.3-2.2-0.9C281.5,145.3,281.2,144.6,281.2,143.8z
				 M287,164.1c-0.2,0-0.6,0.1-1.1,0.2c-0.5,0.1-0.9,0.1-1.4,0.1s-0.9,0-1.3-0.1s-0.7-0.2-1-0.4s-0.5-0.5-0.6-0.8s-0.2-0.8-0.2-1.3
				v-13.4c0.2,0,0.6-0.1,1.1-0.2c0.5-0.1,0.9-0.1,1.4-0.1s0.9,0,1.3,0.1s0.7,0.2,1,0.4s0.5,0.5,0.6,0.8s0.2,0.8,0.2,1.3V164.1
				L287,164.1z"/>
			<path style="fill:#5B5B5F;" d="M307.1,156.2c0,1.4-0.2,2.6-0.6,3.6c-0.4,1.1-1,2-1.8,2.7s-1.7,1.3-2.7,1.6
				c-1,0.4-2.2,0.6-3.5,0.6s-2.5-0.2-3.5-0.6c-1-0.4-2-1-2.7-1.7s-1.3-1.6-1.8-2.7c-0.4-1.1-0.6-2.2-0.6-3.5s0.2-2.5,0.6-3.5
				c0.4-1.1,1-1.9,1.8-2.7c0.8-0.7,1.7-1.3,2.7-1.7c1.1-0.4,2.2-0.6,3.5-0.6s2.5,0.2,3.5,0.6c1.1,0.4,2,1,2.7,1.7s1.3,1.6,1.8,2.7
				C306.9,153.8,307.1,154.9,307.1,156.2z M295.6,156.2c0,1.3,0.3,2.4,0.8,3.1c0.5,0.7,1.2,1.1,2.1,1.1s1.6-0.4,2.1-1.1
				c0.5-0.7,0.7-1.7,0.7-3.1s-0.3-2.3-0.8-3s-1.2-1.1-2.1-1.1s-1.6,0.4-2.1,1.1C295.8,153.9,295.6,154.9,295.6,156.2z"/>
			<path style="fill:#5B5B5F;" d="M319.9,154.1c0-0.7-0.2-1.2-0.6-1.5s-0.9-0.5-1.6-0.5c-0.4,0-0.9,0.1-1.3,0.2s-0.8,0.3-1.1,0.5
				v11.4c-0.2,0.1-0.6,0.1-1,0.2c-0.5,0.1-1,0.1-1.5,0.1s-0.9,0-1.3-0.1s-0.7-0.2-1-0.4s-0.5-0.5-0.6-0.8s-0.2-0.8-0.2-1.3V152
				c0-0.6,0.1-1.1,0.4-1.4s0.6-0.7,1-1c0.7-0.5,1.7-1,2.8-1.3c1.1-0.3,2.4-0.5,3.8-0.5c2.5,0,4.4,0.5,5.7,1.6s2,2.6,2,4.5v10.3
				c-0.2,0.1-0.6,0.1-1,0.2c-0.5,0.1-1,0.1-1.5,0.1s-0.9,0-1.3-0.1s-0.7-0.2-1-0.4s-0.5-0.5-0.6-0.8s-0.2-0.8-0.2-1.3L319.9,154.1
				L319.9,154.1z"/>
		</g>
	</g>
	<g style="display:inline;">
		<g>
			<path d="M230.8,298.9c0.1,3.4-2.3,6-5.8,6.1c-0.1,0-0.1,0-0.2,0s-0.1,0-0.2,0c-3.4-0.2-5.9-2.8-5.8-6.1H230.8z"/>
			<path d="M224.8,294.7c-3,0-6,0-9.1,0c-1.7,0-2.6-0.8-2.6-2.1c0-1.3,1-2.1,2.7-2.1c6.1,0,12.2,0,18.3,0c1.7,0,2.6,0.8,2.7,2
				c0,1.3-1,2.1-2.7,2.1C230.9,294.7,227.8,294.7,224.8,294.7z"/>
			<path d="M224.7,286.5c-4,0-7.9,0-11.9,0c-2.2,0-3.4-0.8-3.4-2.1c0-1.3,1.3-2,3.5-2c8,0,16,0,24,0c2.2,0,3.5,0.7,3.5,2
				s-1.3,2.1-3.6,2.1C232.8,286.5,228.7,286.5,224.7,286.5z"/>
			<g id="parte_cerebro_4_">
				<path style="fill:#799B5B;" d="M240.1,265.9c-0.3,1.5-1.5,2.8-3.1,3.1c-0.5,0.1-1.1-0.1-1.4-0.4c-0.8-0.6-1.3-0.5-1.6,0.5
					c-0.1,0.3-0.1,0.7-0.2,1c-0.4,1.9-1.9,3-3.9,2.9s-3.3-1.2-3.3-3.3c-0.1-4.5,0-8.9,0-13.4c0-1,0-2,0-2.8c1.7,0.6,3.3,1.3,4.9,1.8
					c0.5,0.2,1,0.1,1.6,0.1c2.2,0,3.6,1.2,3.7,3.2c0.1,2.2-1.3,4-3.3,4.3c-0.5,0.1-1.1-0.1-1.6,0c-0.4,0.1-0.8,0.3-1.1,0.4
					c0.3,0.4,0.5,1.1,0.8,1.1c0.9,0.2,1.9,0.2,2.8,0c1.7-0.3,2.8-1.5,3.7-3C239.8,262.7,240.4,264.1,240.1,265.9z"/>
				<path style="fill:#799B5B;" d="M241.9,263.9c-0.5-1.8-1.6-3.1-3.1-4c-0.2-0.1-0.3-0.6-0.3-0.9c0-1.5-0.5-2.8-1.6-3.9
					c-0.4-0.4-0.3-0.7,0-1.1c0.7-0.8,1.3-1.7,2-2.4c0.4-0.4,0.9-0.7,1.4-0.7c2.9-0.1,5.9,2.6,6.3,5.5
					C247.2,259.9,245.4,263,241.9,263.9z"/>
				<path style="fill:#799B5B;" d="M254.1,240.1c-1,1.7-2.8,2.5-4.7,2c0-0.4-0.1-0.9-0.1-1.3c-0.2-1.9-1.3-3.2-2.9-4
					c-0.3-0.2-1-0.2-1.3,0.2c-0.2,0.3,0.2,0.9,0.4,1.1c0.2,0.2,0.5,0.4,0.8,0.6c1.2,1,1.6,2.4,1,3.8c-0.6,1.5-1.9,2.3-3.5,2.2
					c-0.4,0-0.8-0.2-1.2-0.1c-0.3,0.1-0.7,0.4-0.8,0.8c-0.1,0.2,0.4,0.6,0.6,0.8c1.4,0.8,3.9,0.4,5.2-1.1s3.3-1.4,4.4-0.9
					c0.2,0.1,0.6,0.4,0.8,0.7c1,1.8,1.1,3.6,0,5.4c-1.1,1.8-2.9,2.5-4.9,2.3c-0.4-0.1-0.9-0.4-1.2-0.7c-1.6-1.5-3.4-2.5-5.6-2.7
					c-0.3,0-0.7-0.4-0.7-0.7c-0.1-0.6-0.1-1.2-0.1-1.8c-0.5-4.4-4.9-7.5-9.2-6.5c-0.3,0.1-0.6,0.1-0.8,0.3s-0.4,0.6-0.4,0.8
					s0.4,0.5,0.6,0.5c0.7,0.1,1.4,0,2.1,0c2.9,0,5.2,1.9,5.8,4.7s-0.7,5.6-3.3,6.8c-2.5,1.2-5.6,0.5-7.3-1.8
					c-0.5-0.7-0.9-1.7-0.9-2.6c-0.1-7.2,0-14.5,0-21.8c0-1.6,0.3-3.2,1.4-4.5c1.7-1.9,4.4-2.2,6.4-0.7c0.2,0.1,1.5,0.8,1.8,0.5
					s-0.6-1.5-0.7-1.7c-0.6-2,4.5-2.8,6.8-1.5s3.3,4.4,2.2,6.8c-0.1,0.2-0.2,0.4-0.3,0.5c-0.1,0.3-0.2,1.2,0.2,1.5
					c0.5,0.2,1.1-0.4,1.3-0.8c0.5-0.7,0.7-1.8,1.8-1.8c1.3,0,2.3,0.5,3.1,1.5c1.1,1.4,1.3,2.9,0.6,4.6c-0.7,1.5-2.3,2.4-4,2.3
					c-1.8-0.1-3.1-1-3.6-2.7c-0.8-2.6-3.1-4.7-6.1-4.4c-3.2,0.2-5.7,3.2-5.3,6.4c0.1,0.6,0.1,1.4,1,1.3c0.8-0.1,0.8-0.8,0.7-1.4
					c-0.2-2.4,1-4,3.2-4.5c2-0.4,3.8,0.6,4.7,2.8c0.6,1.7,1.6,3.1,3.3,3.9c2,1,4,0.6,5.8-0.6c1-0.7,1.7-0.4,2.4,0.4
					C254.8,236.1,255,238.5,254.1,240.1z"/>
			</g>
			<path id="parte_corazon_4_" style="fill:#6A214C;" d="M223.8,248c0,8.4,0,15.1,0,21.9c0,1,0.2,2.3-0.7,2.8s-1.9-0.3-2.7-0.9
				c-5.8-3.8-11.3-7.9-16.1-13c-4.1-4.4-7.8-9.2-10-15c-1.4-3.8-2.3-7.6-1.6-11.7c0.7-4.3,2.8-7.8,6.4-10.3
				c6.4-4.5,14.9-4.5,21.3-0.1c0.8,0.5,1.4,1.2,2.1,1.8c0.8,0.7,1.1,1.7,1.2,2.8C224,234.1,223.7,241.8,223.8,248z"/>
			<path style="fill-rule:evenodd;clip-rule:evenodd;" d="M246.9,279.7c-1.5,0.8-3.5,2.6-4.8,0.3c-1.4-2.4,1.2-2.9,2.7-3.8
				c11.7-6.9,18.3-17.2,19.4-30.8c1.1-14.1-3.8-25.7-14.7-34.6c-7.2-5.9-16-8.8-24.6-8.7c-8.7,0-17.4,2.8-24.6,8.7
				c-10.8,8.9-15.8,20.5-14.7,34.6c1.1,13.6,7.6,23.9,19.4,30.8c1.5,0.9,4,1.5,2.7,3.8s-3.3,0.5-4.8-0.3
				c-26.4-14.7-29.2-53.1-5-72.3c8.1-6.4,17.2-9.5,27-9.4c9.9-0.1,18.9,3,27,9.4C276.1,226.6,273.3,265,246.9,279.7z"/>
		</g>
		<g>
			<path d="M130.4,348.4c-0.2,0.1-0.6,0.1-1.1,0.2s-1,0.1-1.5,0.1s-0.9,0-1.3-0.1s-0.7-0.2-1-0.4c-0.3-0.2-0.5-0.5-0.6-0.8
				c-0.1-0.4-0.2-0.8-0.2-1.4v-15.5c0-0.5,0.1-0.8,0.4-1.1s0.6-0.5,1-0.6c0.7-0.3,1.6-0.5,2.5-0.6c1-0.1,1.9-0.2,2.9-0.2
				c3,0,5.3,0.6,6.9,1.9c1.6,1.3,2.4,3,2.4,5.3c0,1.1-0.2,2-0.5,2.9s-0.8,1.6-1.5,2.2s-1.5,1.1-2.5,1.4s-2.2,0.5-3.5,0.5h-2.3
				L130.4,348.4L130.4,348.4z M132.1,337.9c0.9,0,1.6-0.2,2.1-0.6s0.7-1.1,0.7-2c0-0.8-0.3-1.5-0.8-1.9s-1.3-0.7-2.2-0.7
				c-0.4,0-0.6,0-0.9,0c-0.2,0-0.5,0-0.7,0.1v5.1H132.1z"/>
			<path d="M156.6,343.8c0,1.7-0.6,3-1.9,3.9c-1.2,0.9-3.1,1.4-5.5,1.4c-0.9,0-1.8-0.1-2.6-0.2s-1.5-0.3-2-0.6s-1-0.6-1.3-1
				s-0.5-0.9-0.5-1.5c0-0.5,0.1-1,0.3-1.3c0.2-0.4,0.5-0.7,0.8-0.9c0.6,0.4,1.4,0.7,2.2,0.9c0.8,0.3,1.8,0.4,2.8,0.4
				c0.7,0,1.2-0.1,1.6-0.3c0.4-0.2,0.5-0.5,0.5-0.8s-0.1-0.5-0.4-0.7s-0.7-0.3-1.3-0.4l-1-0.2c-1.9-0.4-3.3-1-4.3-1.8
				c-0.9-0.8-1.4-1.9-1.4-3.4c0-0.8,0.2-1.5,0.5-2.2s0.8-1.2,1.5-1.6c0.6-0.4,1.4-0.8,2.3-1c0.9-0.2,1.9-0.4,2.9-0.4
				c0.8,0,1.6,0.1,2.3,0.2s1.3,0.3,1.9,0.5c0.5,0.2,0.9,0.6,1.2,0.9c0.3,0.4,0.5,0.8,0.5,1.4c0,0.5-0.1,0.9-0.3,1.3
				s-0.4,0.7-0.7,0.9c-0.2-0.1-0.4-0.2-0.8-0.3c-0.4-0.1-0.7-0.2-1.1-0.3s-0.8-0.2-1.3-0.2c-0.4-0.1-0.8-0.1-1.2-0.1
				c-0.7,0-1.3,0.1-1.7,0.2s-0.6,0.4-0.6,0.8c0,0.2,0.1,0.4,0.3,0.6s0.6,0.3,1.2,0.4l1,0.2c2.1,0.5,3.6,1.1,4.5,2
				C156.2,341.4,156.6,342.5,156.6,343.8z"/>
			<path d="M159.2,328.2c0-0.8,0.3-1.5,0.8-2.1c0.6-0.6,1.3-0.9,2.2-0.9s1.7,0.3,2.2,0.9c0.6,0.6,0.8,1.3,0.8,2.1
				c0,0.8-0.3,1.5-0.8,2.1s-1.3,0.9-2.2,0.9s-1.7-0.3-2.2-0.9S159.2,329,159.2,328.2z M165,348.5c-0.2,0-0.6,0.1-1.1,0.2
				s-0.9,0.1-1.4,0.1s-0.9,0-1.3-0.1c-0.4-0.1-0.7-0.2-1-0.4c-0.3-0.2-0.5-0.5-0.6-0.8s-0.2-0.8-0.2-1.3v-13.4
				c0.2,0,0.6-0.1,1.1-0.2s0.9-0.1,1.4-0.1s0.9,0,1.3,0.1s0.7,0.2,1,0.4c0.3,0.2,0.5,0.5,0.6,0.8s0.2,0.8,0.2,1.3V348.5z"/>
			<path d="M177.6,336.5c-0.5,0-1.1,0.1-1.6,0.3c-0.5,0.2-0.9,0.4-1.3,0.8c-0.4,0.3-0.7,0.8-0.9,1.3s-0.3,1.1-0.3,1.8
				c0,1.4,0.4,2.4,1.2,3.1s1.7,1,2.8,1c0.7,0,1.2-0.1,1.7-0.2c0.5-0.2,0.9-0.3,1.3-0.5c0.4,0.3,0.8,0.6,1,1s0.3,0.8,0.3,1.3
				c0,0.9-0.4,1.6-1.3,2.1s-2,0.7-3.5,0.7c-1.4,0-2.6-0.2-3.7-0.6c-1.1-0.4-2.1-1-2.9-1.7s-1.4-1.6-1.9-2.6c-0.4-1-0.7-2.2-0.7-3.4
				c0-1.4,0.2-2.7,0.7-3.8c0.5-1.1,1.1-2,1.9-2.7c0.8-0.7,1.7-1.2,2.8-1.6s2.2-0.5,3.4-0.5c1.6,0,2.8,0.3,3.6,0.9
				c0.9,0.6,1.3,1.3,1.3,2.2c0,0.4-0.1,0.8-0.3,1.2s-0.4,0.7-0.7,0.9c-0.4-0.2-0.8-0.3-1.3-0.5C178.7,336.6,178.2,336.5,177.6,336.5
				z"/>
			<path d="M200.6,340.6c0,1.4-0.2,2.6-0.6,3.6s-1,2-1.8,2.7s-1.7,1.3-2.7,1.6c-1.1,0.4-2.2,0.6-3.5,0.6s-2.5-0.2-3.5-0.6
				c-1.1-0.4-2-1-2.7-1.7s-1.3-1.6-1.8-2.7c-0.4-1.1-0.6-2.2-0.6-3.5s0.2-2.5,0.6-3.5c0.4-1,1-1.9,1.8-2.7c0.8-0.7,1.7-1.3,2.7-1.7
				c1.1-0.4,2.2-0.6,3.5-0.6s2.5,0.2,3.5,0.6c1.1,0.4,2,1,2.7,1.7s1.3,1.6,1.8,2.7C200.4,338.2,200.6,339.3,200.6,340.6z
				 M189.1,340.6c0,1.3,0.3,2.4,0.8,3.1s1.2,1.1,2.1,1.1s1.6-0.4,2.1-1.1s0.7-1.7,0.7-3.1s-0.3-2.3-0.8-3s-1.2-1.1-2.1-1.1
				c-0.9,0-1.6,0.4-2.1,1.1S189.1,339.3,189.1,340.6z"/>
			<path d="M203.8,331.7c0-0.9,0.3-1.7,0.8-2.2s1.3-0.8,2.2-0.8h10.8c0.2,0.2,0.3,0.6,0.4,1c0.1,0.4,0.2,0.8,0.2,1.2
				c0,0.8-0.2,1.4-0.5,1.8c-0.4,0.4-0.8,0.5-1.4,0.5h-6.9v3.1h7.4c0.2,0.2,0.3,0.6,0.4,0.9c0.1,0.4,0.2,0.8,0.2,1.2
				c0,0.8-0.2,1.4-0.5,1.8c-0.4,0.4-0.8,0.5-1.4,0.5h-6v3.4h8.4c0.2,0.2,0.3,0.6,0.4,1c0.1,0.4,0.2,0.8,0.2,1.2
				c0,0.8-0.2,1.4-0.5,1.8c-0.4,0.4-0.8,0.5-1.4,0.5H207c-0.9,0-1.7-0.3-2.2-0.8s-0.8-1.3-0.8-2.2L203.8,331.7L203.8,331.7z"/>
			<path d="M228.8,332.1c0.9,0,1.8,0.1,2.6,0.4c0.9,0.3,1.6,0.6,2.2,1.1c0.7-0.4,1.4-0.8,2.2-1.1c0.8-0.3,1.8-0.4,3-0.4
				c0.8,0,1.6,0.1,2.4,0.3c0.8,0.2,1.5,0.6,2.1,1c0.6,0.5,1.1,1.1,1.5,1.9s0.6,1.7,0.6,2.8v10.3c-0.2,0.1-0.6,0.1-1,0.2
				s-1,0.1-1.5,0.1s-0.9,0-1.3-0.1c-0.4-0.1-0.7-0.2-1-0.4c-0.3-0.2-0.5-0.5-0.6-0.8s-0.2-0.8-0.2-1.3v-7.8c0-0.7-0.2-1.1-0.6-1.4
				c-0.4-0.3-0.9-0.4-1.5-0.4c-0.3,0-0.6,0.1-1,0.2s-0.6,0.3-0.8,0.4c0,0.1,0,0.2,0,0.2s0,0.1,0,0.2v10.9c-0.2,0.1-0.6,0.1-1.1,0.2
				s-0.9,0.1-1.4,0.1s-0.9,0-1.3-0.1c-0.4-0.1-0.7-0.2-1-0.4c-0.3-0.2-0.5-0.5-0.6-0.8s-0.2-0.8-0.2-1.3v-7.8c0-0.7-0.2-1.1-0.6-1.4
				c-0.4-0.3-0.9-0.4-1.5-0.4c-0.4,0-0.7,0.1-1,0.2s-0.5,0.2-0.7,0.3v11.5c-0.2,0.1-0.6,0.1-1,0.2s-1,0.1-1.5,0.1s-0.9,0-1.3-0.1
				c-0.4-0.1-0.7-0.2-1-0.4c-0.3-0.2-0.5-0.5-0.6-0.8s-0.2-0.8-0.2-1.3v-9.9c0-0.6,0.1-1.1,0.4-1.4c0.3-0.4,0.6-0.7,1-1
				c0.7-0.5,1.7-1,2.8-1.3C226.5,332.3,227.6,332.1,228.8,332.1z"/>
			<path d="M265.5,340.6c0,1.4-0.2,2.6-0.6,3.6c-0.4,1.1-1,2-1.8,2.7s-1.7,1.3-2.7,1.6c-1,0.4-2.2,0.6-3.5,0.6
				c-1.3,0-2.5-0.2-3.5-0.6c-1.1-0.4-2-1-2.7-1.7s-1.3-1.6-1.8-2.7c-0.4-1.1-0.6-2.2-0.6-3.5s0.2-2.5,0.6-3.5c0.4-1,1-1.9,1.8-2.7
				c0.8-0.7,1.7-1.3,2.7-1.7c1.1-0.4,2.2-0.6,3.5-0.6c1.3,0,2.5,0.2,3.5,0.6c1.1,0.4,2,1,2.7,1.7s1.3,1.6,1.8,2.7
				C265.2,338.2,265.5,339.3,265.5,340.6z M254,340.6c0,1.3,0.3,2.4,0.8,3.1s1.2,1.1,2.1,1.1s1.6-0.4,2.1-1.1s0.7-1.7,0.7-3.1
				s-0.3-2.3-0.8-3s-1.2-1.1-2.1-1.1s-1.6,0.4-2.1,1.1C254.2,338.3,254,339.3,254,340.6z"/>
			<path d="M273.8,343.1c0,0.6,0.2,1,0.5,1.2s0.9,0.4,1.5,0.4c0.3,0,0.7,0,1-0.1c0.4-0.1,0.7-0.1,0.9-0.2c0.2,0.2,0.4,0.5,0.5,0.8
				s0.2,0.7,0.2,1.1c0,0.8-0.3,1.5-0.9,2s-1.7,0.8-3.3,0.8c-1.9,0-3.4-0.4-4.4-1.3s-1.6-2.3-1.6-4.3v-14c0.2-0.1,0.6-0.1,1-0.2
				s0.9-0.1,1.4-0.1c1,0,1.7,0.2,2.2,0.5s0.8,1.1,0.8,2.1v2.1h4.3c0.1,0.2,0.3,0.5,0.4,0.9s0.2,0.8,0.2,1.2c0,0.8-0.2,1.3-0.5,1.7
				c-0.3,0.3-0.8,0.5-1.4,0.5h-3L273.8,343.1L273.8,343.1z"/>
			<path d="M281.2,328.2c0-0.8,0.3-1.5,0.8-2.1c0.6-0.6,1.3-0.9,2.2-0.9s1.7,0.3,2.2,0.9c0.6,0.6,0.8,1.3,0.8,2.1
				c0,0.8-0.3,1.5-0.8,2.1c-0.6,0.6-1.3,0.9-2.2,0.9s-1.7-0.3-2.2-0.9S281.2,329,281.2,328.2z M287,348.5c-0.2,0-0.6,0.1-1.1,0.2
				s-0.9,0.1-1.4,0.1s-0.9,0-1.3-0.1s-0.7-0.2-1-0.4c-0.3-0.2-0.5-0.5-0.6-0.8s-0.2-0.8-0.2-1.3v-13.4c0.2,0,0.6-0.1,1.1-0.2
				s0.9-0.1,1.4-0.1s0.9,0,1.3,0.1s0.7,0.2,1,0.4c0.3,0.2,0.5,0.5,0.6,0.8s0.2,0.8,0.2,1.3V348.5L287,348.5z"/>
			<path d="M307.1,340.6c0,1.4-0.2,2.6-0.6,3.6c-0.4,1.1-1,2-1.8,2.7s-1.7,1.3-2.7,1.6c-1,0.4-2.2,0.6-3.5,0.6s-2.5-0.2-3.5-0.6
				s-2-1-2.7-1.7s-1.3-1.6-1.8-2.7c-0.4-1.1-0.6-2.2-0.6-3.5s0.2-2.5,0.6-3.5s1-1.9,1.8-2.7c0.8-0.7,1.7-1.3,2.7-1.7
				c1.1-0.4,2.2-0.6,3.5-0.6s2.5,0.2,3.5,0.6c1.1,0.4,2,1,2.7,1.7s1.3,1.6,1.8,2.7C306.9,338.2,307.1,339.3,307.1,340.6z
				 M295.6,340.6c0,1.3,0.3,2.4,0.8,3.1s1.2,1.1,2.1,1.1s1.6-0.4,2.1-1.1s0.7-1.7,0.7-3.1s-0.3-2.3-0.8-3s-1.2-1.1-2.1-1.1
				s-1.6,0.4-2.1,1.1C295.8,338.3,295.6,339.3,295.6,340.6z"/>
			<path d="M319.9,338.5c0-0.7-0.2-1.2-0.6-1.5s-0.9-0.5-1.6-0.5c-0.4,0-0.9,0.1-1.3,0.2s-0.8,0.3-1.1,0.5v11.4
				c-0.2,0.1-0.6,0.1-1,0.2c-0.5,0.1-1,0.1-1.5,0.1s-0.9,0-1.3-0.1s-0.7-0.2-1-0.4c-0.3-0.2-0.5-0.5-0.6-0.8s-0.2-0.8-0.2-1.3v-9.8
				c0-0.6,0.1-1.1,0.4-1.4s0.6-0.7,1-1c0.7-0.5,1.7-1,2.8-1.3c1.1-0.3,2.4-0.5,3.8-0.5c2.5,0,4.4,0.5,5.7,1.6s2,2.6,2,4.5v10.3
				c-0.2,0.1-0.6,0.1-1,0.2c-0.5,0.1-1,0.1-1.5,0.1s-0.9,0-1.3-0.1s-0.7-0.2-1-0.4c-0.3-0.2-0.5-0.5-0.6-0.8s-0.2-0.8-0.2-1.3
				L319.9,338.5L319.9,338.5z"/>
		</g>
	</g>
</g>
<g id="Capa_2">
	<g>
		<path d="M87.2,165.6c0.2,5.4-3.7,9.5-9.1,9.7c-0.1,0-0.2,0-0.3,0s-0.2,0-0.3,0c-5.4-0.3-9.3-4.4-9.1-9.7H87.2z"/>
		<path d="M77.6,159c-4.8,0-9.6,0-14.4,0c-2.6,0-4.2-1.3-4.1-3.3c0-2,1.6-3.3,4.2-3.3c9.6,0,19.3,0,28.9,0c2.6,0,4.2,1.2,4.2,3.2
			c0.1,2.1-1.5,3.4-4.3,3.4C87.3,159,82.5,159,77.6,159z"/>
		<path d="M77.5,145.9c-6.3,0-12.6,0-18.9,0c-3.5,0-5.5-1.3-5.4-3.3c0-2,2.1-3.2,5.5-3.2c12.7,0,25.3,0,38,0c3.5,0,5.5,1.2,5.6,3.2
			c0.1,2.1-2,3.3-5.7,3.3C90.3,145.9,83.9,145.9,77.5,145.9z"/>
		<g id="parte_cerebro_9_">
			<path style="fill:#799B5B;" d="M102,113.3c-0.4,2.4-2.3,4.5-4.9,4.9c-0.7,0.1-1.7-0.2-2.3-0.7c-1.2-0.9-2-0.8-2.5,0.7
				c-0.2,0.5-0.2,1.1-0.3,1.6c-0.6,2.9-3,4.8-6.1,4.7s-5.2-1.9-5.3-5.2c-0.2-7.1-0.1-14.1-0.1-21.2c0-1.6,0-3.2,0-4.4
				c2.6,1,5.2,2,7.8,2.9c0.8,0.3,1.6,0.2,2.5,0.2c3.5,0,5.7,1.9,5.9,5.1c0.2,3.5-2,6.4-5.3,6.8c-0.8,0.1-1.7-0.1-2.5,0
				c-0.6,0.1-1.2,0.5-1.8,0.7c0.4,0.6,0.8,1.7,1.3,1.8c1.4,0.2,3,0.3,4.4,0c2.7-0.5,4.4-2.4,5.9-4.7
				C101.4,108.2,102.4,110.5,102,113.3z"/>
			<path style="fill:#799B5B;" d="M104.8,110.2c-0.8-2.8-2.5-4.9-4.9-6.4c-0.3-0.2-0.5-0.9-0.5-1.4c-0.1-2.4-0.9-4.4-2.5-6.1
				c-0.7-0.7-0.5-1.2,0-1.8c1.1-1.3,2-2.6,3.2-3.8c0.6-0.6,1.5-1.1,2.3-1.1c4.5-0.1,9.3,4.1,10,8.7
				C113.2,103.8,110.3,108.7,104.8,110.2z"/>
			<path style="fill:#799B5B;" d="M124,72.5c-1.6,2.7-4.5,3.9-7.5,3.2c-0.1-0.7-0.1-1.4-0.2-2.1c-0.4-3-2-5.1-4.6-6.4
				c-0.5-0.2-1.6-0.3-2,0.3c-0.3,0.5,0.2,1.5,0.6,1.8c0.3,0.3,0.8,0.6,1.2,1c1.9,1.5,2.5,3.8,1.7,5.9c-1,2.4-2.9,3.6-5.5,3.4
				c-0.6-0.1-1.3-0.3-1.9-0.1c-0.5,0.2-1.1,0.7-1.3,1.2c-0.1,0.3,0.6,1,1,1.2c2.3,1.2,6.2,0.6,8.2-1.8c2.1-2.4,5.3-2.1,6.9-1.5
				c0.4,0.2,1,0.6,1.3,1.1c1.6,2.8,1.7,5.7-0.1,8.5c-1.8,2.8-4.5,4-7.8,3.6c-0.7-0.1-1.4-0.6-2-1.1c-2.5-2.4-5.4-3.9-8.8-4.3
				c-0.4-0.1-1-0.7-1.2-1.2c-0.2-0.9-0.1-1.9-0.2-2.9c-0.8-6.5-7.8-11.5-14.5-10c-0.5,0.1-1,0.2-1.3,0.5s-0.7,0.9-0.6,1.3
				c0,0.3,0.6,0.7,1,0.8c1.1,0.1,2.2,0,3.4,0c4.6,0,8.3,3,9.3,7.4c1,4.5-1.1,8.8-5.2,10.7c-4,1.9-8.9,0.8-11.5-2.8
				c-0.8-1.1-1.5-2.7-1.5-4.1c-0.1-11.5,0-23,0-34.5c0-2.6,0.4-5.1,2.3-7.2c2.7-3,7-3.5,10.2-1.1c0.3,0.2,2.3,1.3,2.8,0.8
				s-1-2.3-1.1-2.6c-0.9-3.2,7.1-4.5,10.8-2.3c3.7,2.1,5.3,7,3.5,10.7c-0.1,0.3-0.3,0.6-0.4,0.8c-0.2,0.5-0.4,2,0.3,2.3
				c0.7,0.4,1.7-0.6,2.1-1.2c0.8-1.2,1-2.8,2.8-2.9c2,0,3.7,0.8,5,2.3c1.8,2.2,2.1,4.7,0.9,7.2c-1,2.3-3.7,3.8-6.3,3.6
				c-2.8-0.2-4.9-1.6-5.7-4.3c-1.2-4.2-4.9-7.4-9.7-7c-5,0.3-9,5.1-8.4,10.1c0.1,1,0.2,2.3,1.6,2.1c1.3-0.2,1.2-1.2,1.1-2.2
				c-0.3-3.8,1.6-6.4,5.1-7.2c3.2-0.7,6.1,1,7.4,4.5c1,2.7,2.5,4.9,5.2,6.1c3.2,1.5,6.3,1,9.1-0.9c1.6-1.1,2.7-0.7,3.8,0.6
				C125.2,66.1,125.6,69.9,124,72.5z"/>
		</g>
		<path id="parte_corazon_9_" style="fill:#6A214C;" d="M76.1,84.9c0,13.2,0,24,0,34.8c0,1.6,0.3,3.6-1.1,4.5
			c-1.5,0.9-3-0.5-4.3-1.4c-9.2-6-17.9-12.6-25.4-20.6c-6.6-7-12.4-14.6-15.8-23.8c-2.2-5.9-3.6-12.1-2.6-18.5
			C28,53,31.4,47.6,37,43.6c10.1-7.1,23.5-7.2,33.7-0.2c1.2,0.8,2.3,1.9,3.4,2.8c1.3,1.2,1.8,2.6,1.9,4.4
			C76.4,62.9,75.9,75.1,76.1,84.9z"/>
		<path style="fill-rule:evenodd;clip-rule:evenodd;" d="M112.7,135.2c-2.4,1.3-5.5,4.1-7.6,0.5c-2.2-3.7,1.8-4.7,4.3-6.1
			c18.6-10.9,29-27.2,30.7-48.8c1.8-22.3-6.1-40.7-23.2-54.8c-11.4-9.4-25.3-13.9-39-13.8c-13.7-0.1-27.6,4.4-39,13.8
			c-17.2,14.1-25,32.5-23.2,54.8c1.8,21.6,12.1,37.9,30.7,48.8c2.4,1.4,6.4,2.3,4.3,6.1c-2.1,3.6-5.2,0.8-7.6-0.5
			C1.1,112-3.3,51.1,35,20.7C47.8,10.5,62.1,5.6,77.8,5.8c15.7-0.2,30,4.7,42.8,14.9C158.9,51.1,154.5,112,112.7,135.2z"/>
	</g>
</g>
<g id="Capa_5">
	<g>
		<path d="M182.2,93.2c-0.4,0.1-1,0.2-1.8,0.3c-0.8,0.1-1.6,0.2-2.4,0.2c-0.8,0-1.5-0.1-2.1-0.2s-1.1-0.3-1.5-0.7
			c-0.4-0.3-0.7-0.7-0.9-1.3c-0.2-0.6-0.3-1.3-0.3-2.2V64.9c0-0.7,0.2-1.3,0.6-1.7c0.4-0.4,0.9-0.7,1.6-1c1.2-0.4,2.5-0.7,4-0.9
			s3-0.3,4.6-0.3c4.8,0,8.4,1,11,3.1c2.5,2,3.8,4.8,3.8,8.3c0,1.7-0.3,3.2-0.8,4.6s-1.3,2.5-2.4,3.5c-1.1,1-2.4,1.8-4,2.3
			s-3.5,0.8-5.6,0.8h-3.7L182.2,93.2L182.2,93.2z M184.9,76.5c1.5,0,2.6-0.3,3.4-1s1.2-1.7,1.2-3.1c0-1.3-0.4-2.3-1.2-3
			s-2-1.1-3.6-1.1c-0.6,0-1,0-1.4,0s-0.7,0.1-1.1,0.1v8.1C182.2,76.5,184.9,76.5,184.9,76.5z"/>
		<path d="M223.7,85.9c0,2.6-1,4.7-3,6.2s-4.9,2.2-8.7,2.2c-1.5,0-2.8-0.1-4.1-0.3s-2.3-0.5-3.2-1c-0.9-0.4-1.6-1-2.1-1.6
			c-0.5-0.7-0.8-1.4-0.8-2.3c0-0.8,0.2-1.5,0.5-2.1s0.8-1,1.2-1.4c1,0.6,2.2,1,3.5,1.5c1.3,0.4,2.8,0.6,4.5,0.6
			c1.1,0,1.9-0.2,2.5-0.5s0.9-0.7,0.9-1.2s-0.2-0.9-0.6-1.1s-1.1-0.5-2.1-0.7l-1.6-0.3c-3-0.6-5.3-1.5-6.7-2.8
			c-1.5-1.3-2.2-3.1-2.2-5.4c0-1.3,0.3-2.4,0.8-3.5c0.6-1,1.3-1.9,2.3-2.6s2.2-1.2,3.6-1.6c1.4-0.4,3-0.6,4.7-0.6
			c1.3,0,2.5,0.1,3.6,0.3c1.1,0.2,2.1,0.5,2.9,0.9c0.8,0.4,1.5,0.9,2,1.5s0.7,1.3,0.7,2.2c0,0.8-0.1,1.5-0.4,2.1
			c-0.3,0.6-0.7,1-1.1,1.4c-0.3-0.2-0.7-0.4-1.2-0.5c-0.6-0.2-1.2-0.4-1.8-0.5c-0.7-0.2-1.3-0.3-2-0.4s-1.3-0.2-1.8-0.2
			c-1.1,0-2,0.1-2.7,0.4c-0.6,0.3-0.9,0.7-0.9,1.2c0,0.4,0.2,0.7,0.5,0.9c0.3,0.2,1,0.5,2,0.7l1.6,0.4c3.3,0.8,5.7,1.8,7.1,3.1
			C223,82.1,223.7,83.8,223.7,85.9z"/>
		<path d="M227.8,61.2c0-1.3,0.4-2.4,1.3-3.3c0.9-0.9,2.1-1.4,3.5-1.4s2.6,0.4,3.5,1.4c0.9,0.9,1.3,2,1.3,3.3s-0.4,2.4-1.3,3.3
			c-0.9,0.9-2.1,1.4-3.5,1.4s-2.6-0.4-3.5-1.4C228.2,63.6,227.8,62.5,227.8,61.2z M237,93.4c-0.4,0.1-0.9,0.2-1.7,0.3
			c-0.7,0.1-1.5,0.2-2.3,0.2s-1.4-0.1-2.1-0.2c-0.6-0.1-1.1-0.3-1.5-0.6c-0.4-0.3-0.7-0.7-1-1.3c-0.2-0.5-0.3-1.2-0.3-2.1V68.5
			c0.4-0.1,0.9-0.2,1.7-0.3c0.7-0.1,1.5-0.2,2.3-0.2s1.4,0.1,2.1,0.2c0.6,0.1,1.1,0.3,1.5,0.6c0.4,0.3,0.7,0.7,1,1.3
			c0.2,0.5,0.3,1.2,0.3,2.1V93.4z"/>
		<path d="M256.9,74.4c-0.9,0-1.7,0.1-2.5,0.4s-1.5,0.7-2,1.2c-0.6,0.5-1,1.2-1.4,2c-0.3,0.8-0.5,1.7-0.5,2.8c0,2.1,0.6,3.8,1.8,4.8
			c1.2,1.1,2.7,1.6,4.5,1.6c1,0,1.9-0.1,2.7-0.4c0.8-0.2,1.4-0.5,2-0.8c0.7,0.5,1.2,1,1.6,1.6c0.3,0.6,0.5,1.3,0.5,2.1
			c0,1.4-0.7,2.5-2,3.3c-1.4,0.8-3.2,1.2-5.6,1.2c-2.2,0-4.2-0.3-5.9-1c-1.8-0.6-3.3-1.5-4.6-2.7s-2.2-2.6-2.9-4.2s-1-3.4-1-5.4
			c0-2.3,0.4-4.3,1.1-6c0.7-1.7,1.8-3.1,3-4.2c1.3-1.1,2.8-1.9,4.4-2.5s3.5-0.8,5.3-0.8c2.5,0,4.4,0.5,5.8,1.4s2,2.1,2,3.5
			c0,0.7-0.2,1.3-0.5,1.8c-0.3,0.6-0.7,1.1-1.1,1.5c-0.6-0.3-1.3-0.5-2.1-0.8C258.8,74.5,257.9,74.4,256.9,74.4z"/>
		<path d="M293.4,80.8c0,2.1-0.3,4.1-1,5.7c-0.7,1.7-1.6,3.1-2.8,4.2c-1.2,1.1-2.6,2-4.3,2.6s-3.5,0.9-5.6,0.9c-2,0-3.9-0.3-5.6-0.9
			s-3.1-1.5-4.3-2.7c-1.2-1.2-2.1-2.6-2.8-4.2c-0.7-1.7-1-3.5-1-5.6c0-2,0.3-3.9,1-5.6s1.6-3.1,2.8-4.2c1.2-1.2,2.6-2.1,4.3-2.7
			s3.5-0.9,5.6-0.9c2,0,3.9,0.3,5.6,1s3.1,1.5,4.3,2.7s2.1,2.6,2.8,4.2C293.1,77,293.4,78.8,293.4,80.8z M275.2,80.8
			c0,2.1,0.4,3.7,1.2,4.9c0.8,1.1,2,1.7,3.4,1.7s2.6-0.6,3.4-1.7s1.2-2.8,1.2-4.8s-0.4-3.7-1.2-4.8c-0.8-1.1-1.9-1.7-3.4-1.7
			s-2.6,0.6-3.4,1.7C275.6,77.1,275.2,78.7,275.2,80.8z"/>
		<path d="M298.4,66.8c0-1.5,0.4-2.7,1.3-3.5c0.9-0.9,2-1.3,3.5-1.3h17.2c0.2,0.4,0.5,0.9,0.6,1.5c0.2,0.6,0.3,1.3,0.3,2
			c0,1.3-0.3,2.3-0.9,2.8s-1.3,0.8-2.3,0.8h-11v4.8H319c0.2,0.4,0.5,0.9,0.6,1.5c0.2,0.6,0.3,1.3,0.3,1.9c0,1.3-0.3,2.3-0.8,2.8
			c-0.6,0.6-1.3,0.8-2.2,0.8h-9.6v5.5h13.4c0.2,0.4,0.5,0.9,0.6,1.5c0.2,0.6,0.3,1.3,0.3,2c0,1.3-0.3,2.3-0.9,2.8s-1.3,0.9-2.3,0.9
			h-15.2c-1.5,0-2.7-0.4-3.5-1.3s-1.3-2-1.3-3.5V66.8L298.4,66.8z"/>
		<path d="M338.1,67.4c1.4,0,2.8,0.2,4.2,0.6c1.4,0.4,2.6,1,3.6,1.8c1-0.7,2.2-1.3,3.5-1.7c1.3-0.4,2.9-0.7,4.7-0.7
			c1.3,0,2.6,0.2,3.9,0.5s2.4,0.9,3.4,1.6s1.8,1.7,2.4,3c0.6,1.2,0.9,2.7,0.9,4.5v16.4c-0.3,0.1-0.9,0.2-1.6,0.3
			c-0.7,0.1-1.5,0.2-2.3,0.2s-1.4-0.1-2.1-0.2c-0.6-0.1-1.1-0.3-1.5-0.6c-0.4-0.3-0.7-0.7-1-1.3c-0.2-0.5-0.3-1.2-0.3-2.1V77.3
			c0-1-0.3-1.8-0.9-2.3s-1.4-0.7-2.4-0.7c-0.5,0-1,0.1-1.6,0.3c-0.6,0.2-1,0.5-1.2,0.7c0,0.1,0.1,0.3,0.1,0.4s0,0.2,0,0.3v17.4
			c-0.4,0.1-0.9,0.2-1.7,0.3s-1.5,0.2-2.3,0.2s-1.4-0.1-2.1-0.2s-1.1-0.3-1.5-0.6c-0.4-0.3-0.7-0.7-1-1.3c-0.2-0.5-0.3-1.2-0.3-2.1
			V77.3c0-1-0.3-1.8-1-2.3c-0.6-0.5-1.4-0.7-2.3-0.7c-0.6,0-1.2,0.1-1.6,0.3c-0.5,0.2-0.8,0.4-1.1,0.5v18.3
			c-0.3,0.1-0.9,0.2-1.6,0.3c-0.7,0.1-1.5,0.2-2.3,0.2s-1.4-0.1-2.1-0.2s-1.1-0.3-1.5-0.6c-0.4-0.3-0.7-0.7-1-1.3
			c-0.2-0.5-0.3-1.2-0.3-2.1V74c0-0.9,0.2-1.7,0.6-2.2s0.9-1.1,1.6-1.6c1.2-0.8,2.6-1.5,4.4-2C334.4,67.7,336.2,67.4,338.1,67.4z"/>
		<path d="M396.1,80.8c0,2.1-0.3,4.1-1,5.7c-0.7,1.7-1.6,3.1-2.8,4.2c-1.2,1.1-2.6,2-4.3,2.6s-3.5,0.9-5.6,0.9c-2,0-3.9-0.3-5.6-0.9
			s-3.1-1.5-4.3-2.7c-1.2-1.2-2.1-2.6-2.8-4.2c-0.7-1.7-1-3.5-1-5.6c0-2,0.3-3.9,1-5.6s1.6-3.1,2.8-4.2c1.2-1.2,2.6-2.1,4.3-2.7
			s3.5-0.9,5.6-0.9c2,0,3.9,0.3,5.6,1s3.1,1.5,4.3,2.7s2.1,2.6,2.8,4.2C395.8,77,396.1,78.8,396.1,80.8z M377.9,80.8
			c0,2.1,0.4,3.7,1.2,4.9c0.8,1.1,2,1.7,3.4,1.7s2.6-0.6,3.4-1.7s1.2-2.8,1.2-4.8s-0.4-3.7-1.2-4.8c-0.8-1.1-1.9-1.7-3.4-1.7
			s-2.6,0.6-3.4,1.7C378.3,77.1,377.9,78.7,377.9,80.8z"/>
		<path d="M409.3,84.8c0,0.9,0.3,1.5,0.9,1.9s1.4,0.6,2.4,0.6c0.5,0,1.1,0,1.6-0.1c0.6-0.1,1-0.2,1.5-0.3c0.3,0.4,0.6,0.8,0.8,1.3
			c0.2,0.5,0.3,1,0.3,1.7c0,1.3-0.5,2.4-1.5,3.2s-2.7,1.2-5.2,1.2c-3.1,0-5.4-0.7-7-2.1s-2.5-3.6-2.5-6.8V63.1
			c0.4-0.1,0.9-0.2,1.6-0.3s1.5-0.2,2.3-0.2c1.5,0,2.7,0.3,3.6,0.8s1.3,1.7,1.3,3.4v3.3h6.8c0.2,0.4,0.4,0.9,0.6,1.4
			c0.2,0.6,0.3,1.2,0.3,1.9c0,1.2-0.3,2.1-0.8,2.6s-1.3,0.8-2.2,0.8h-4.7L409.3,84.8L409.3,84.8z"/>
		<path d="M421.1,61.2c0-1.3,0.4-2.4,1.3-3.3s2.1-1.4,3.5-1.4s2.6,0.4,3.5,1.4s1.3,2,1.3,3.3s-0.4,2.4-1.3,3.3
			c-0.9,0.9-2.1,1.4-3.5,1.4s-2.6-0.4-3.5-1.4S421.1,62.5,421.1,61.2z M430.3,93.4c-0.4,0.1-0.9,0.2-1.7,0.3
			c-0.7,0.1-1.5,0.2-2.3,0.2s-1.4-0.1-2.1-0.2s-1.1-0.3-1.5-0.6c-0.4-0.3-0.7-0.7-1-1.3c-0.2-0.5-0.3-1.2-0.3-2.1V68.5
			c0.4-0.1,0.9-0.2,1.7-0.3c0.7-0.1,1.5-0.2,2.3-0.2s1.4,0.1,2.1,0.2c0.6,0.1,1.1,0.3,1.5,0.6c0.4,0.3,0.7,0.7,1,1.3
			c0.2,0.5,0.3,1.2,0.3,2.1V93.4z"/>
		<path d="M462.1,80.8c0,2.1-0.3,4.1-1,5.7c-0.7,1.7-1.6,3.1-2.8,4.2c-1.2,1.1-2.6,2-4.3,2.6s-3.5,0.9-5.6,0.9c-2,0-3.9-0.3-5.6-0.9
			s-3.1-1.5-4.3-2.7c-1.2-1.2-2.1-2.6-2.8-4.2c-0.7-1.7-1-3.5-1-5.6c0-2,0.3-3.9,1-5.6s1.6-3.1,2.8-4.2c1.2-1.2,2.6-2.1,4.3-2.7
			s3.5-0.9,5.6-0.9c2,0,3.9,0.3,5.6,1s3.1,1.5,4.3,2.7s2.1,2.6,2.8,4.2C461.8,77,462.1,78.8,462.1,80.8z M443.9,80.8
			c0,2.1,0.4,3.7,1.2,4.9c0.8,1.1,2,1.7,3.4,1.7s2.6-0.6,3.4-1.7s1.2-2.8,1.2-4.8s-0.4-3.7-1.2-4.8c-0.8-1.1-1.9-1.7-3.4-1.7
			s-2.6,0.6-3.4,1.7C444.3,77.1,443.9,78.7,443.9,80.8z"/>
		<path d="M482.4,77.4c0-1.1-0.3-1.9-0.9-2.4s-1.4-0.8-2.5-0.8c-0.7,0-1.4,0.1-2.1,0.3c-0.7,0.2-1.3,0.4-1.7,0.8v18
			c-0.3,0.1-0.9,0.2-1.6,0.3c-0.7,0.1-1.5,0.2-2.3,0.2s-1.4-0.1-2.1-0.2s-1.1-0.3-1.5-0.6c-0.4-0.3-0.7-0.7-1-1.3
			c-0.2-0.5-0.3-1.2-0.3-2.1V74.1c0-0.9,0.2-1.7,0.6-2.3c0.4-0.6,0.9-1.1,1.6-1.6c1.2-0.8,2.7-1.5,4.4-2s3.8-0.8,6-0.8
			c3.9,0,6.9,0.9,9,2.6s3.2,4.1,3.2,7.1v16.3c-0.3,0.1-0.9,0.2-1.6,0.3c-0.7,0.1-1.5,0.2-2.3,0.2s-1.4-0.1-2.1-0.2
			c-0.6-0.1-1.1-0.3-1.5-0.6c-0.4-0.3-0.7-0.7-1-1.3s-0.3-1.2-0.3-2.1L482.4,77.4L482.4,77.4z"/>
	</g>
</g>
<g style="enable-background:new    ;">
	<path d="M230.622,103.26c3.221,0,5.641,1.661,5.641,5.081c0,3.401-2.42,5.302-5.641,5.302h-2.261v6.121H224.6V103.26H230.622z
		 M229.421,110.642c1.48,0,2.88-0.5,2.88-2.181c0-1.7-1.4-2.2-2.88-2.2h-1.061v4.381H229.421z"/>
	<path d="M245.822,110.002l-1.16,2.32c0,0-1.201-0.641-2.281-0.641c-0.78,0-1.1,0.141-1.1,0.62c0,0.54,0.72,0.7,1.6,0.98
		c1.36,0.42,3.121,1.181,3.121,3.28c0,3.021-2.76,3.501-4.861,3.501c-2.48,0-3.961-1.38-3.961-1.38l1.44-2.421
		c0,0,1.4,1.181,2.541,1.181c0.5,0,1.1-0.061,1.1-0.74c0-0.74-1.12-0.8-2.28-1.4c-1.04-0.54-2.081-1.261-2.081-2.801
		c0-2.101,1.78-3.301,4.481-3.301C244.361,109.201,245.822,110.002,245.822,110.002z"/>
	<path d="M251.681,105.261c0,1.16-0.94,2.101-2.101,2.101s-2.1-0.94-2.1-2.101s0.94-2.101,2.1-2.101
		S251.681,104.101,251.681,105.261z M247.76,119.764h3.541v-10.262h-3.541V119.764z"/>
	<path d="M256.82,114.623c0,1.42,1.101,2.54,2.44,2.54c1.061,0,1.721-0.48,1.721-0.48l1.2,2.461c0,0-1.16,0.92-3.441,0.92
		c-2.96,0-5.681-2.4-5.681-5.401c0-3.021,2.7-5.461,5.681-5.461c2.281,0,3.441,0.961,3.441,0.961l-1.2,2.42
		c0,0-0.66-0.48-1.721-0.48C257.921,112.102,256.82,113.223,256.82,114.623z"/>
	<path d="M268.2,117.783c0,1.261-1.02,2.28-2.3,2.28c-1.261,0-2.281-1.02-2.281-2.28c0-1.28,1.021-2.301,2.281-2.301
		C267.181,115.482,268.2,116.503,268.2,117.783z"/>
	<path d="M291.103,119.764h-4.041l-1.22-3.301h-6.281l-1.221,3.301h-4.041l6.661-16.504h3.481L291.103,119.764z M282.721,108.361
		h-0.04l-1.84,4.801h3.721L282.721,108.361z"/>
	<path d="M291.739,102.56h3.541v17.204h-3.541V102.56z"/>
	<path d="M300.62,115.123c0,1.58,1.32,2.12,2.221,2.12c1.14,0,1.641-0.22,2.5-1.141l2.561,1.28c-1.16,1.94-3.04,2.681-5.321,2.681
		c-3.101,0-5.641-2.44-5.641-5.421c0-3.001,2.54-5.441,5.641-5.441c3.121,0,5.502,1.841,5.502,5.441c0,0.14,0,0.36-0.021,0.48
		H300.62z M304.621,113.162c-0.16-1.08-0.9-1.66-1.94-1.66c-1.221,0-1.9,0.72-1.961,1.66H304.621z"/>
	<path d="M309.739,109.502h3.541v11.842c0,1.82-0.881,3.921-3.701,3.921c-1.681,0-2.32-0.42-2.82-0.64l1.1-2.861
		c0,0,0.46,0.301,0.9,0.301c0.601,0,0.98-0.44,0.98-1.4V109.502z M311.56,103.16c-1.16,0-2.101,0.94-2.101,2.101
		s0.94,2.101,2.101,2.101s2.101-0.94,2.101-2.101S312.72,103.16,311.56,103.16z"/>
	<path d="M320.04,109.201c1.38,0,2.521,0.46,3.36,1.28v-0.979h3.541v10.262h-3.501v-1.16h-0.04c-0.76,0.84-1.96,1.46-3.36,1.46
		c-3.001,0-5.102-2.42-5.102-5.421S317.039,109.201,320.04,109.201z M321.101,117.043c1.38,0,2.38-1,2.38-2.4
		c0-1.42-1.06-2.421-2.38-2.421c-1.341,0-2.401,1.001-2.401,2.421C318.699,116.043,319.66,117.043,321.101,117.043z"/>
	<path d="M329.339,109.502h3.541v1.08h0.04c0.8-0.801,1.82-1.381,2.94-1.381c1.881,0,4.501,0.94,4.501,3.801v6.762h-3.541v-5.801
		c0-1.021-0.699-2.001-1.84-2.001c-1.061,0-2.101,0.98-2.101,2.001v5.801h-3.541V109.502z"/>
	<path d="M346.92,109.201c1.38,0,2.521,0.46,3.36,1.28v-7.922h3.541v17.204h-3.501v-1.16h-0.04c-0.76,0.84-1.96,1.46-3.36,1.46
		c-3.001,0-5.102-2.42-5.102-5.421S343.919,109.201,346.92,109.201z M347.98,117.043c1.38,0,2.38-1,2.38-2.4
		c0-1.42-1.06-2.421-2.38-2.421c-1.341,0-2.401,1.001-2.401,2.421C345.579,116.043,346.54,117.043,347.98,117.043z"/>
	<path d="M356.219,109.502h3.541v1.479h0.04c0,0,1.12-1.78,3.141-1.78c1.32,0,2.24,0.641,2.24,0.641l-1.48,3
		c0,0-0.66-0.56-1.84-0.56c-1.841,0-2.101,1.82-2.101,2.08v5.401h-3.541V109.502z"/>
	<path d="M370.38,109.201c1.38,0,2.521,0.46,3.36,1.28v-0.979h3.541v10.262h-3.501v-1.16h-0.04c-0.76,0.84-1.96,1.46-3.36,1.46
		c-3.001,0-5.102-2.42-5.102-5.421S367.379,109.201,370.38,109.201z M371.44,117.043c1.38,0,2.38-1,2.38-2.4
		c0-1.42-1.06-2.421-2.38-2.421c-1.341,0-2.401,1.001-2.401,2.421C369.039,116.043,370,117.043,371.44,117.043z"/>
	<path d="M391.04,103.26c3.061,0,5.381,1.661,5.381,4.901c0,2.48-1.36,4.141-3.381,4.781l5.682,6.821h-4.781l-5.041-6.521v6.521
		h-3.761V103.26H391.04z M389.34,110.582c1.42,0,3.12-0.101,3.12-2.161s-1.7-2.16-3.12-2.16h-0.44v4.321H389.34z"/>
	<path d="M404.42,109.201c3.4,0,6.121,2.24,6.121,5.441c0,3.161-2.58,5.421-6.121,5.421c-3.701,0-6.182-2.26-6.182-5.421
		C398.238,111.441,400.959,109.201,404.42,109.201z M404.4,117.043c1.38,0,2.38-1,2.38-2.4c0-1.42-1.06-2.421-2.38-2.421
		c-1.341,0-2.401,1.001-2.401,2.421C401.999,116.043,402.96,117.043,404.4,117.043z"/>
	<path d="M416.56,109.201c1.38,0,2.521,0.46,3.36,1.28v-7.922h3.541v17.204h-3.501v-1.16h-0.04c-0.76,0.84-1.96,1.46-3.36,1.46
		c-3.001,0-5.102-2.42-5.102-5.421S413.559,109.201,416.56,109.201z M417.62,117.043c1.38,0,2.38-1,2.38-2.4
		c0-1.42-1.06-2.421-2.38-2.421c-1.341,0-2.401,1.001-2.401,2.421C415.219,116.043,416.18,117.043,417.62,117.043z"/>
	<path d="M425.858,109.502h3.541v1.479h0.04c0,0,1.12-1.78,3.141-1.78c1.32,0,2.24,0.641,2.24,0.641l-1.48,3
		c0,0-0.66-0.56-1.84-0.56c-1.841,0-2.101,1.82-2.101,2.08v5.401h-3.541V109.502z"/>
	<path d="M435.818,109.502h3.541v10.262h-3.541V109.502z M436.418,106.48l1.12,1.541l4.762-2.761l-1.82-2.301L436.418,106.48z"/>
	<path d="M444.198,120.864c0.381,0.62,1.24,1.32,2.781,1.32c0.979,0,2.5-0.58,2.5-2.401v-0.76c-0.76,0.84-1.96,1.04-3.36,1.04
		c-3.001,0-5.102-2.42-5.102-5.421s2.101-5.441,5.102-5.441c1.36,0,2.46,0.44,3.301,1.221h0.06v-0.92h3.541v10.542
		c0,3.44-2.54,5.221-6.041,5.221c-2.141,0-4.602-0.479-5.682-2.98L444.198,120.864z M447.18,117.043c1.38,0,2.38-1,2.38-2.4
		c0-1.42-1.06-2.421-2.38-2.421c-1.341,0-2.401,1.001-2.401,2.421C444.778,116.043,445.739,117.043,447.18,117.043z"/>
	<path d="M458.759,114.383c0,2.021,0.54,2.801,2.021,2.801s2.021-0.78,2.021-2.801v-4.881h3.541v5.741c0,3.44-1.721,4.82-5.562,4.82
		s-5.562-1.38-5.562-4.82v-5.741h3.541V114.383z"/>
	<path d="M471.479,115.123c0,1.58,1.32,2.12,2.221,2.12c1.14,0,1.641-0.22,2.5-1.141l2.561,1.28c-1.16,1.94-3.04,2.681-5.321,2.681
		c-3.101,0-5.641-2.44-5.641-5.421c0-3.001,2.54-5.441,5.641-5.441c3.121,0,5.502,1.841,5.502,5.441c0,0.14,0,0.36-0.021,0.48
		H471.479z M475.479,113.162c-0.16-1.08-0.9-1.66-1.94-1.66c-1.221,0-1.9,0.72-1.961,1.66H475.479z"/>
	<path d="M485.439,117.063h4.681v2.7h-10.622l5.081-7.562h-4.241v-2.7h10.183L485.439,117.063z"/>
</g>
</svg>
